<svg width="25" height="28" viewBox="0 0 25 28" fill="none" xmlns="http://www.w3.org/2000/svg">
<path d="M17.6722 5.08063C15.703 5.08063 13.5823 5.53224 12.118 6.77418C10.6538 5.53224 8.53309 5.08063 6.5639 5.08063C5.09963 5.08063 3.54447 5.32901 2.24177 5.97256C1.50459 6.34514 1.00977 7.14676 1.00977 8.06127V20.7968C1.00977 22.2645 2.24177 23.3484 3.51418 22.9871C4.50382 22.7048 5.55406 22.5806 6.5639 22.5806C8.13925 22.5806 9.81559 22.8742 11.1688 23.6193C11.7747 23.958 12.4614 23.958 13.0572 23.6193C14.4104 22.8629 16.0867 22.5806 17.6621 22.5806C18.6719 22.5806 19.7221 22.7048 20.7118 22.9871C21.9842 23.3597 23.2162 22.2758 23.2162 20.7968V8.06127C23.2162 7.14676 22.7214 6.34514 21.9842 5.97256C20.6916 5.32901 19.1364 5.08063 17.6722 5.08063ZM21.2066 19.4532C21.2066 20.1645 20.6209 20.6839 19.9948 20.5597C19.2374 20.4016 18.4497 20.3339 17.6722 20.3339C15.9554 20.3339 13.4813 21.0677 12.118 22.0274V9.03224C13.4813 8.07256 15.9554 7.33869 17.6722 7.33869C18.6012 7.33869 19.5202 7.44031 20.3987 7.65482C20.8633 7.76772 21.2066 8.23063 21.2066 8.76127V19.4532Z" fill="url(#paint0_linear_15_167)"/>
<path d="M14.1176 12.4307C13.7945 12.4307 13.5016 12.2048 13.4006 11.8436C13.2693 11.4032 13.4915 10.9177 13.8853 10.7823C15.4405 10.2177 17.4501 10.0371 19.2981 10.2742C19.7121 10.3307 20.0151 10.7484 19.9646 11.2113C19.9141 11.6742 19.5405 12.0129 19.1264 11.9565C17.4905 11.7419 15.7031 11.9113 14.3499 12.3968C14.2691 12.4081 14.1883 12.4307 14.1176 12.4307Z" fill="url(#paint1_linear_15_167)"/>
<path d="M14.1176 15.4338C13.7945 15.4338 13.5016 15.208 13.4006 14.8467C13.2693 14.4064 13.4915 13.9209 13.8853 13.7854C15.4304 13.2209 17.4501 13.0403 19.2981 13.2774C19.7121 13.3338 20.0151 13.7516 19.9646 14.2145C19.9141 14.6774 19.5405 15.0161 19.1264 14.9596C17.4905 14.7451 15.7031 14.9145 14.3499 15.4C14.2691 15.4225 14.1883 15.4338 14.1176 15.4338Z" fill="url(#paint2_linear_15_167)"/>
<path d="M14.1176 18.4371C13.7945 18.4371 13.5016 18.2113 13.4006 17.85C13.2693 17.4096 13.4915 16.9242 13.8853 16.7887C15.4304 16.2242 17.4501 16.0435 19.2981 16.2806C19.7121 16.3371 20.0151 16.7548 19.9646 17.2177C19.9141 17.6806 19.5405 18.008 19.1264 17.9629C17.4905 17.7484 15.7031 17.9177 14.3499 18.4032C14.2691 18.4258 14.1883 18.4371 14.1176 18.4371Z" fill="url(#paint3_linear_15_167)"/>
<defs>
<linearGradient id="paint0_linear_15_167" x1="12.113" y1="5.08063" x2="12.113" y2="23.8734" gradientUnits="userSpaceOnUse">
<stop stop-color="#541EED"/>
<stop offset="0.9999" stop-color="#5A17E8"/>
<stop offset="1" stop-color="#800ADD"/>
</linearGradient>
<linearGradient id="paint1_linear_15_167" x1="16.6664" y1="10.1725" x2="16.6664" y2="12.4307" gradientUnits="userSpaceOnUse">
<stop stop-color="#541EED"/>
<stop offset="0.9999" stop-color="#5A17E8"/>
<stop offset="1" stop-color="#800ADD"/>
</linearGradient>
<linearGradient id="paint2_linear_15_167" x1="16.6664" y1="13.1757" x2="16.6664" y2="15.4338" gradientUnits="userSpaceOnUse">
<stop stop-color="#541EED"/>
<stop offset="0.9999" stop-color="#5A17E8"/>
<stop offset="1" stop-color="#800ADD"/>
</linearGradient>
<linearGradient id="paint3_linear_15_167" x1="16.6664" y1="16.1789" x2="16.6664" y2="18.4371" gradientUnits="userSpaceOnUse">
<stop stop-color="#541EED"/>
<stop offset="0.9999" stop-color="#5A17E8"/>
<stop offset="1" stop-color="#800ADD"/>
</linearGradient>
</defs>
</svg>
