<svg width="233" height="39" viewBox="0 0 233 39" fill="none" xmlns="http://www.w3.org/2000/svg">
<path d="M10.8401 16.6881L10.8854 16.4874H11.4179C11.7861 16.4874 12.075 16.4093 12.279 16.2532C12.4886 16.0971 12.6528 15.7485 12.7661 15.2048L15.2587 3.60596C15.3267 3.23513 15.3606 2.99813 15.3606 2.89218C15.3606 2.67749 15.2842 2.54087 15.1341 2.47953C14.9811 2.41261 14.7715 2.37916 14.4996 2.37916H13.9218L13.9784 2.17841H18.295C19.3969 2.17841 20.2239 2.45165 20.7763 2.99256C21.3342 3.53625 21.6146 4.31974 21.6146 5.34579C21.6146 6.06793 21.4702 6.7594 21.1841 7.4202C20.9037 8.07543 20.4958 8.6247 19.9605 9.07081C19.4223 9.51692 18.7766 9.79017 18.0231 9.88496L19.0541 14.3461C19.2354 15.0989 19.3997 15.6454 19.5526 15.9855C19.7028 16.3201 19.9548 16.4874 20.3117 16.4874H20.527L20.4817 16.6881H20.0851C19.6319 16.6881 19.2637 16.6407 18.9862 16.5432C18.7057 16.4484 18.4792 16.2643 18.3064 15.9967C18.1308 15.729 17.9835 15.3164 17.8645 14.7587L16.8448 9.94073H15.1794L14.0464 15.1825C14.0011 15.3331 13.9699 15.4669 13.9558 15.584C13.9388 15.6956 13.9331 15.7931 13.9331 15.874C13.9331 16.0692 14.0039 16.2197 14.1484 16.3313C14.2985 16.4372 14.5449 16.4874 14.8848 16.4874H15.6665L15.6326 16.6881H10.8401ZM15.236 9.73998H16.7089C17.4028 9.73998 18.0231 9.55875 18.567 9.19349C19.1108 8.82266 19.5356 8.30685 19.8472 7.64326C20.1559 6.98246 20.3117 6.19898 20.3117 5.29003C20.3117 4.45078 20.1333 3.75652 19.7792 3.20446C19.4308 2.65519 18.853 2.37916 18.0458 2.37916H16.8222L15.236 9.73998Z" fill="white"/>
<path d="M21.3264 16.6881L21.3944 16.4874H21.8816C22.2668 16.4874 22.5529 16.4288 22.7426 16.309C22.9381 16.1835 23.0655 15.9855 23.1278 15.7179L25.8017 3.33829C25.847 3.10966 25.8696 2.93679 25.8696 2.82527C25.8696 2.52972 25.609 2.37916 25.0879 2.37916H24.4081L24.4421 2.17841H32.4749L31.8291 5.3681H31.6251C31.6846 4.97496 31.7328 4.60971 31.7724 4.27513C31.8092 3.93497 31.8291 3.65615 31.8291 3.43867C31.8291 3.05947 31.7526 2.78902 31.6025 2.62452C31.4495 2.4628 31.1974 2.37916 30.8434 2.37916H27.2519L25.847 8.98159H29.8577L29.7897 9.2158H25.7677L24.2155 16.4874H28.2602C28.6058 16.4874 28.8777 16.44 29.0759 16.3424C29.2799 16.2476 29.4527 16.072 29.5971 15.8182C29.7387 15.5589 29.8719 15.1825 29.9937 14.6918L30.3222 13.4985H30.6168L29.8124 16.6881H21.3264Z" fill="white"/>
<path d="M37.0354 16.8889C35.6079 16.8889 34.5344 16.4373 33.8178 15.5283C33.0983 14.6221 32.7415 13.3535 32.7415 11.7252C32.7415 10.4399 32.9057 9.21305 33.24 8.0448C33.5799 6.87097 34.0614 5.83097 34.6902 4.92202C35.3161 4.01586 36.0667 3.30209 36.9448 2.78069C37.8285 2.26209 38.8198 2 39.9245 2C40.9442 2 41.7259 2.2119 42.2697 2.63571C42.8136 3.05394 43.0855 3.61715 43.0855 4.33093C43.0855 4.62926 42.9722 4.86347 42.7456 5.03355C42.519 5.20642 42.2471 5.29006 41.9299 5.29006C41.9299 4.25007 41.7656 3.47216 41.4427 2.95914C41.1169 2.44053 40.559 2.17844 39.7659 2.17844C38.9643 2.17844 38.2194 2.45726 37.5339 3.0149C36.8456 3.56696 36.2367 4.3142 35.7098 5.25661C35.1887 6.2018 34.7808 7.26132 34.4862 8.43514C34.1917 9.6034 34.0444 10.7967 34.0444 12.0152C34.0444 12.8572 34.135 13.6323 34.3163 14.3461C34.5032 15.0543 34.8176 15.6231 35.2567 16.0525C35.7013 16.4763 36.3018 16.6882 37.0581 16.6882C37.4263 16.6882 37.8002 16.6408 38.1797 16.5432C38.5564 16.4484 38.919 16.2811 39.2674 16.0413L40.1511 12.0375C40.2021 11.8089 40.2474 11.6025 40.287 11.4241C40.3324 11.2401 40.355 11.0644 40.355 10.8999C40.355 10.7215 40.2984 10.596 40.1851 10.5207C40.0774 10.4482 39.8735 10.4092 39.5733 10.4092H38.9728L39.0408 10.2084H43.0062L42.9609 10.4092H42.6323C42.4114 10.4092 42.2301 10.4399 42.0885 10.4984C41.9525 10.5597 41.8336 10.7047 41.7373 10.9334C41.6466 11.1648 41.5446 11.5328 41.4313 12.0375L40.5703 15.9521C39.9726 16.2644 39.392 16.4986 38.8255 16.6547C38.2647 16.8109 37.6699 16.8889 37.0354 16.8889Z" fill="white"/>
<path d="M42.7114 16.6881L42.7567 16.4874H43.2666C43.6518 16.4874 43.9379 16.4372 44.1276 16.3313C44.3231 16.2197 44.4704 15.9409 44.5695 15.4948L47.1527 3.60596C47.1895 3.39963 47.215 3.23792 47.232 3.12639C47.2461 3.00929 47.2546 2.90891 47.2546 2.82527C47.2546 2.64125 47.1753 2.52135 47.0167 2.46838C46.8581 2.40983 46.6202 2.37916 46.3029 2.37916H45.7931L45.8271 2.17841H50.325L50.291 2.37916H49.7698C49.3676 2.37916 49.0702 2.44328 48.8748 2.56875C48.685 2.68864 48.5377 3.00371 48.4329 3.51674L45.8951 15.2494C45.8639 15.4 45.8328 15.5478 45.8044 15.6956C45.7818 15.8461 45.7704 15.9604 45.7704 16.0413C45.7704 16.2281 45.8526 16.3508 46.0197 16.4093C46.1925 16.4623 46.4389 16.4874 46.7561 16.4874H47.232L47.1867 16.6881H42.7114Z" fill="white"/>
<path d="M47.8918 16.6881L47.9598 16.4874H48.2431C48.4923 16.4874 48.7048 16.4512 48.8775 16.3759C49.0446 16.3034 49.2174 16.1361 49.3987 15.874C49.58 15.6063 49.8122 15.1769 50.1011 14.5803L56.1286 2.17841H57.0576L58.0093 14.6583C58.0461 15.1881 58.0914 15.584 58.1452 15.8517C58.2047 16.1138 58.2869 16.2839 58.3945 16.3647C58.5078 16.4484 58.6664 16.4874 58.8703 16.4874H59.0856L59.0176 16.6881H55.0522L55.1202 16.4874H55.6187C56.0096 16.4874 56.2985 16.4261 56.4798 16.2978C56.661 16.164 56.7517 15.8963 56.7517 15.4948C56.7517 15.3693 56.746 15.2439 56.7404 15.1156C56.7319 14.9818 56.7205 14.8424 56.7064 14.6918L56.4798 11.424H51.8799L50.3277 14.6137C50.1918 14.8898 50.07 15.1463 49.9652 15.3833C49.866 15.6147 49.8179 15.8266 49.8179 16.019C49.8179 16.2058 49.9114 16.3313 50.1011 16.3982C50.2966 16.4595 50.6138 16.4874 51.0528 16.4874H51.6307L51.5627 16.6881H47.8918ZM54.1912 6.60605L51.9592 11.2233H56.4798L56.1965 6.95179C56.1654 6.55865 56.1342 6.10418 56.1059 5.59115C56.0832 5.07812 56.0606 4.57625 56.0379 4.08553C56.0153 3.58923 56.0039 3.16821 56.0039 2.82527C55.851 3.16821 55.7009 3.49164 55.5507 3.79556C55.3978 4.10226 55.2165 4.47309 55.0069 4.91083C54.7945 5.343 54.5226 5.909 54.1912 6.60605Z" fill="white"/>
<path d="M59.844 16.6881L59.8893 16.4874H60.5691C60.9685 16.4874 61.2744 16.4288 61.4868 16.309C61.6964 16.1835 61.8607 15.8907 61.974 15.4279L64.5685 3.50558C64.628 3.19331 64.6591 2.96746 64.6591 2.82527C64.6591 2.65519 64.5826 2.54087 64.4325 2.47953C64.2881 2.41261 64.087 2.37916 63.8321 2.37916H62.9257L62.9597 2.17841H65.9734L69.2816 15.2494L71.6949 4.05207C71.7629 3.7621 71.8082 3.54741 71.8308 3.40521C71.8535 3.2658 71.8648 3.14312 71.8648 3.03717C71.8648 2.59942 71.5391 2.37916 70.8905 2.37916H70.2107L70.2447 2.17841H74.1874L74.1534 2.37916H73.451C73.1706 2.37916 72.9411 2.41819 72.7599 2.49068C72.5843 2.5576 72.4341 2.70816 72.3067 2.93679C72.1849 3.15985 72.0716 3.51116 71.9668 3.98515L69.191 16.6881H68.5565L64.9424 2.7472L62.2572 15.1491C62.1723 15.5506 62.1326 15.835 62.1326 15.9967C62.1326 16.3257 62.4555 16.4874 63.107 16.4874H63.7867L63.7414 16.6881H59.844Z" fill="white"/>
<path d="M72.25 16.6881L72.318 16.4874H72.8052C73.1904 16.4874 73.4764 16.4288 73.6662 16.309C73.8617 16.1835 73.9891 15.9855 74.0514 15.7179L76.7252 3.33829C76.7706 3.10966 76.7932 2.93679 76.7932 2.82527C76.7932 2.52972 76.5326 2.37916 76.0115 2.37916H75.3317L75.3657 2.17841H83.3984L82.7526 5.3681H82.5487C82.6082 4.97496 82.6563 4.60971 82.696 4.27513C82.7328 3.93497 82.7526 3.65615 82.7526 3.43867C82.7526 3.05947 82.6762 2.78902 82.5261 2.62452C82.3731 2.4628 82.121 2.37916 81.767 2.37916H78.1754L76.7706 8.98159H80.7813L80.7133 9.2158H76.6912L75.1391 16.4874H79.1838C79.5293 16.4874 79.8013 16.44 79.9995 16.3424C80.2035 16.2476 80.3762 16.072 80.5207 15.8182C80.6623 15.5589 80.7954 15.1825 80.9172 14.6918L81.2458 13.4985H81.5404L80.736 16.6881H72.25Z" fill="white"/>
<path d="M7.18901 35C6.05604 35 5.10434 34.6627 4.33392 33.9851C3.5635 33.3104 2.98002 32.3652 2.58915 31.1523C2.19544 29.9339 2 28.5091 2 26.8808C2 25.2525 2.19544 23.8361 2.58915 22.6316C2.98002 21.4271 3.57483 20.4987 4.36791 19.8434C5.16099 19.1826 6.13535 18.8508 7.29098 18.8508C8.39279 18.8508 9.25385 19.1018 9.87415 19.5981C10.4916 20.0972 10.8032 20.6799 10.8032 21.349C10.8032 21.7366 10.7012 22.0405 10.4973 22.2636C10.299 22.4811 10.0328 22.587 9.69288 22.587C9.69288 21.4132 9.5116 20.5321 9.14905 19.9438C8.79216 19.3583 8.1747 19.0627 7.29098 19.0627C5.89176 19.0627 4.89474 19.7542 4.29993 21.1371C3.70229 22.5145 3.40488 24.4272 3.40488 26.8808C3.40488 29.3567 3.72212 31.2917 4.35658 32.6803C4.99105 34.0632 6.00505 34.7547 7.40428 34.7547C8.25684 34.7547 8.91113 34.5037 9.36432 33.9963C9.8175 33.4916 10.1177 32.8113 10.2707 31.9553C10.4576 32.0167 10.5879 32.117 10.6559 32.2565C10.7239 32.3986 10.7579 32.5297 10.7579 32.6468C10.7579 32.9814 10.6219 33.3327 10.35 33.6952C10.0838 34.052 9.68438 34.3615 9.14905 34.6208C8.61089 34.8718 7.95943 35 7.18901 35Z" fill="white"/>
<path d="M11.4302 34.7769V34.5538H12.0307C12.4215 34.5538 12.7019 34.4479 12.8691 34.2304C13.0418 34.0073 13.2259 33.5222 13.4242 32.7694L17.061 19.0626H18.0014L22.0914 33.6281C22.1962 34.0157 22.3209 34.2694 22.4653 34.3865C22.6154 34.498 22.8789 34.5538 23.2584 34.5538H23.417V34.7769H19.1231V34.5538H19.6782C20.1229 34.5538 20.4146 34.5064 20.5506 34.4088C20.6866 34.3057 20.7545 34.1579 20.7545 33.9627C20.7545 33.801 20.7149 33.5947 20.6412 33.3493C20.5648 33.0984 20.4883 32.8419 20.4146 32.5798L19.4969 29.0555H14.6478L13.8207 32.1783C13.7301 32.5073 13.6423 32.8363 13.5602 33.1709C13.4837 33.5054 13.4469 33.762 13.4469 33.9404C13.4469 34.1635 13.5177 34.3252 13.6621 34.42C13.8122 34.5092 14.0955 34.5538 14.5119 34.5538H15.3389V34.7769H11.4302ZM14.7158 28.8324H19.429L18.0241 23.5349C17.7437 22.4809 17.5369 21.6919 17.4009 21.1705C17.265 20.6519 17.1517 20.1974 17.061 19.8099C16.9846 20.1389 16.9166 20.4288 16.8571 20.6798C16.8033 20.9251 16.7438 21.19 16.6758 21.4716C16.6079 21.7476 16.5116 22.0962 16.3926 22.52L14.7158 28.8324Z" fill="white"/>
<path d="M24.1248 34.7769V34.5538H24.6006C24.9405 34.5538 25.1926 34.5148 25.3597 34.4311C25.5325 34.3419 25.6458 34.1746 25.6996 33.9293C25.7506 33.6783 25.7789 33.2908 25.7789 32.7694V21.0701C25.7789 20.5571 25.7506 20.1779 25.6996 19.9325C25.6458 19.6816 25.5325 19.5087 25.3597 19.4195C25.1926 19.3303 24.9405 19.2857 24.6006 19.2857H24.1248V19.0626H28.5094C30.1182 19.0626 31.254 19.4195 31.9196 20.1333C32.5824 20.8471 32.9166 21.862 32.9166 23.178C32.9166 24.3825 32.6787 25.3361 32.2028 26.0331C31.7327 26.7246 31.0472 27.2125 30.1408 27.4941L32.758 32.4905C33.0809 33.1095 33.3415 33.5668 33.5398 33.8623C33.7437 34.1523 33.9193 34.3419 34.0722 34.4311C34.2224 34.5148 34.381 34.5538 34.5481 34.5538H34.6501V34.7769H34.3895C33.8966 34.7769 33.4746 34.7183 33.1206 34.5984C32.7722 34.4813 32.4578 34.275 32.1802 33.985C31.9083 33.695 31.6364 33.2712 31.3644 32.7136L28.8379 27.6502H27.1385V32.7694C27.1385 33.2908 27.164 33.6783 27.2178 33.9293C27.2688 34.1746 27.382 34.3419 27.5577 34.4311C27.7304 34.5148 27.9882 34.5538 28.3281 34.5538H28.8606V34.7769H24.1248ZM27.1385 27.4272H28.3961C29.529 27.4272 30.3249 27.087 30.7866 26.4011C31.2455 25.7097 31.4777 24.6446 31.4777 23.2003C31.4777 21.8703 31.254 20.8861 30.8093 20.2448C30.3618 19.6063 29.5885 19.2857 28.4867 19.2857H27.1385V27.4272Z" fill="white"/>
<path d="M39.9014 34.7769L35.9247 20.3452C35.8114 19.8768 35.6754 19.584 35.5168 19.4641C35.3582 19.347 35.0778 19.2857 34.6784 19.2857H34.5198V19.0626H38.995V19.2857H38.4285C37.9357 19.2857 37.6298 19.3303 37.5108 19.4195C37.3975 19.5087 37.3409 19.6537 37.3409 19.8545C37.3409 20.0943 37.3749 20.3842 37.4428 20.7244C37.5165 21.059 37.6071 21.4326 37.7148 21.8397L39.7541 29.457C39.9864 30.3213 40.179 31.0602 40.3319 31.6764C40.482 32.2954 40.6293 32.9199 40.7738 33.5501C40.8927 33.0761 41.0032 32.6439 41.1023 32.2563C41.1986 31.8716 41.3006 31.4506 41.4082 30.9961C41.5215 30.536 41.6688 29.97 41.8501 29.3009L43.6175 22.1296C43.7535 21.5887 43.8555 21.1538 43.9234 20.8248C43.9914 20.4902 44.0254 20.1974 44.0254 19.9437C44.0254 19.7151 43.9574 19.5478 43.8215 19.4418C43.6855 19.3387 43.3485 19.2857 42.8131 19.2857H42.19V19.0626H46.0987V19.2857H45.6342C45.181 19.2857 44.8666 19.347 44.6939 19.4641C44.5267 19.584 44.3908 19.8768 44.286 20.3452L40.7171 34.7769H39.9014Z" fill="white"/>
<path d="M46.0981 34.7769V34.5538H46.6986C47.0895 34.5538 47.3699 34.4479 47.537 34.2304C47.7098 34.0073 47.8939 33.5222 48.0922 32.7694L51.729 19.0626H52.6694L56.7594 33.6281C56.8642 34.0157 56.9888 34.2694 57.1333 34.3865C57.2834 34.498 57.5468 34.5538 57.9264 34.5538H58.085V34.7769H53.791V34.5538H54.3462C54.7909 34.5538 55.0826 34.5064 55.2186 34.4088C55.3545 34.3057 55.4225 34.1579 55.4225 33.9627C55.4225 33.801 55.3828 33.5947 55.3092 33.3493C55.2327 33.0984 55.1563 32.8419 55.0826 32.5798L54.1649 29.0555H49.3158L48.4887 32.1783C48.3981 32.5073 48.3103 32.8363 48.2281 33.1709C48.1517 33.5054 48.1148 33.762 48.1148 33.9404C48.1148 34.1635 48.1856 34.3252 48.3301 34.42C48.4802 34.5092 48.7635 34.5538 49.1798 34.5538H50.0069V34.7769H46.0981ZM49.3838 28.8324H54.0969L52.692 23.5349C52.4116 22.4809 52.2049 21.6919 52.0689 21.1705C51.9329 20.6519 51.8197 20.1974 51.729 19.8099C51.6525 20.1389 51.5846 20.4288 51.5251 20.6798C51.4713 20.9251 51.4118 21.19 51.3438 21.4716C51.2758 21.7476 51.1795 22.0962 51.0606 22.52L49.3838 28.8324Z" fill="white"/>
<path d="M58.7925 34.7769V34.5538H59.223C59.5629 34.5538 59.815 34.5176 59.9821 34.4423C60.1549 34.3614 60.2767 34.1913 60.3447 33.9293C60.4126 33.6616 60.4466 33.2657 60.4466 32.7359V21.1147C60.4466 20.5738 60.4126 20.1751 60.3447 19.9214C60.2767 19.6621 60.1549 19.492 59.9821 19.4084C59.815 19.3275 59.5629 19.2857 59.223 19.2857H58.7925V19.0626H63.551V19.2857H63.0411C62.7154 19.2857 62.4633 19.3275 62.282 19.4084C62.1008 19.492 61.9761 19.6621 61.9082 19.9214C61.8402 20.1751 61.8062 20.5571 61.8062 21.0701V34.5538H65.7036C66.457 34.5538 66.964 34.4172 67.2218 34.1412C67.4767 33.8595 67.6183 33.3382 67.641 32.5798L67.7316 30.1819H67.9582L67.8449 34.7769H58.7925Z" fill="white"/>
<path d="M69.4321 34.7769V34.5538H69.942C70.2734 34.5538 70.5141 34.5148 70.6671 34.4311C70.8257 34.3419 70.9305 34.1746 70.9843 33.9293C71.0353 33.6783 71.0636 33.2991 71.0636 32.7917V21.0701C71.0636 20.5571 71.0353 20.1779 70.9843 19.9325C70.9305 19.6816 70.8172 19.5087 70.6444 19.4195C70.4773 19.3303 70.2309 19.2857 69.908 19.2857H69.4321V19.0626H74.1453V19.2857H73.5448C73.2191 19.2857 72.9783 19.3303 72.8197 19.4195C72.6611 19.5087 72.5535 19.6816 72.5025 19.9325C72.4487 20.1779 72.4232 20.5515 72.4232 21.0478V26.4346H78.5752V21.0478C78.5752 20.5515 78.5469 20.1779 78.4959 19.9325C78.4421 19.6816 78.3373 19.5087 78.1787 19.4195C78.0257 19.3303 77.785 19.2857 77.4536 19.2857H76.8758V19.0626H81.6342V19.2857H81.0791C80.7533 19.2857 80.5126 19.3303 80.354 19.4195C80.1954 19.5087 80.0877 19.6816 80.0367 19.9325C79.9829 20.1779 79.9574 20.5515 79.9574 21.0478V32.7917C79.9574 33.2991 79.9829 33.6783 80.0367 33.9293C80.0877 34.1746 80.1954 34.3419 80.354 34.4311C80.5126 34.5148 80.7533 34.5538 81.0791 34.5538H81.6342V34.7769H76.8758V34.5538H77.4536C77.785 34.5538 78.0257 34.5148 78.1787 34.4311C78.3373 34.3419 78.4421 34.1746 78.4959 33.9293C78.5469 33.6783 78.5752 33.2908 78.5752 32.7694V26.6577H72.4232V32.7917C72.4232 33.2991 72.4487 33.6783 72.5025 33.9293C72.5535 34.1746 72.6611 34.3419 72.8197 34.4311C72.9783 34.5148 73.2191 34.5538 73.5448 34.5538H74.1453V34.7769H69.4321Z" fill="white"/>
<path d="M88.6525 34.9999C87.4515 34.9999 86.4545 34.6626 85.6614 33.985C84.8683 33.3103 84.2792 32.3651 83.894 31.1522C83.5088 29.9338 83.3162 28.509 83.3162 26.8807C83.3162 24.31 83.758 22.3248 84.6417 20.9251C85.5311 19.5283 86.8765 18.8284 88.6751 18.8284C92.2242 18.8284 94.0001 21.5218 94.0001 26.903C94.0001 29.4236 93.5299 31.406 92.5952 32.8475C91.6662 34.2834 90.3519 34.9999 88.6525 34.9999ZM88.6525 34.7769C91.281 34.7769 92.5952 32.1532 92.5952 26.903C92.5952 24.2347 92.3035 22.2579 91.7228 20.9698C91.1393 19.6844 90.1253 19.0403 88.6751 19.0403C87.2759 19.0403 86.2676 19.6844 85.6501 20.9698C85.0298 22.2579 84.721 24.2347 84.721 26.903C84.721 29.4849 85.0439 31.4422 85.6954 32.7805C86.344 34.1133 87.3297 34.7769 88.6525 34.7769Z" fill="white"/>
</svg>
