<svg width="165" height="28" viewBox="0 0 165 28" fill="none" xmlns="http://www.w3.org/2000/svg">
<g clip-path="url(#clip0_384_2)">
<path d="M15.9149 12.6266C15.8705 12.4151 15.7373 12.285 15.6218 12.3501C14.9202 12.773 14.0409 13.3912 13.1083 13.993C10.7103 15.6197 4.61745 19.5401 4.61745 17.8971C4.54639 17.2952 5.24805 14.904 6.12733 12.7242C6.36714 12.1711 6.33161 11.6831 6.26056 11.3741C6.19838 11.0324 6.06516 10.7884 5.89641 10.5444H5.93193C7.68162 10.089 9.1471 9.14548 10.4261 7.71398C10.8257 7.2585 11.1721 6.73796 11.4208 6.31502C11.7228 5.82701 12.0869 4.85099 11.8205 4.15151C11.554 3.32189 10.8701 3.69603 10.506 3.84243C9.77769 4.21657 9.04052 4.73712 8.1257 5.61554C7.04214 6.65662 6.0474 7.92545 5.18587 9.11294C5.3191 8.90147 5.45232 8.65747 5.58555 8.41346L5.79871 8.08812C6.69576 6.55902 7.6461 4.98112 8.71189 3.7611C8.84512 3.53336 9.01387 3.27309 8.86288 2.99655C8.72966 2.65494 8.48097 2.93148 8.35663 3.07788C6.42931 5.583 4.94607 8.41346 3.40066 11.0162C2.4148 12.6591 1.26906 14.66 0.256551 16.9211C0.158852 17.1326 0.0700358 17.344 0.0256275 17.5555C-0.00989916 17.6531 -0.00989916 17.7507 0.0345092 17.7995C0.292077 18.2062 0.451947 17.9297 0.558527 17.7507L4.66186 10.3004C5.03489 10.5282 5.72766 11.2277 5.83424 11.6831C5.852 11.7645 5.86088 11.9597 5.74542 12.2362C5.68325 12.3826 4.01349 16.5958 4.14672 18.0273C4.18225 18.3851 4.27994 18.6617 4.46646 18.8406C4.63521 19.0195 4.8839 19.0846 5.19476 19.0846C6.67799 19.0846 9.66223 17.1976 13.2682 14.7901C14.183 14.172 15.0712 13.6026 15.7639 13.1797C15.8883 13.1146 15.9505 12.8706 15.9149 12.6266ZM10.3106 4.88352C10.5238 4.75338 11.3764 4.29791 11.4208 4.67205C11.5096 4.98112 10.8257 6.13608 10.6925 6.31502C10.1951 7.04703 9.59118 7.64891 8.74742 8.26706C7.79708 8.99907 6.74905 9.48708 5.53226 9.79616C7.29971 7.32357 8.7563 5.79447 10.3106 4.88352Z" fill="#D4A52A"/>
<path d="M24.334 12.6266C24.2896 12.4152 24.1564 12.285 24.0409 12.3826C23.9255 12.4477 22.6376 13.2936 22.1225 13.6027C20.6215 14.6112 19.0938 15.5222 17.4951 15.7662C16.9445 15.7987 16.3139 15.7662 15.8609 15.0342C15.6122 14.4811 15.8609 13.7165 15.9675 13.1472C16.8113 12.6592 17.6994 12.0736 18.3922 10.9837C18.6142 10.6095 18.8274 10.0565 18.7297 9.45458C18.5609 8.7551 18.0636 8.7551 17.7261 8.96657C16.9445 9.45458 16.2606 10.4957 15.8343 11.7645C15.4701 12.773 14.9372 14.8552 15.6034 15.7987C16.527 17.0675 17.7616 16.6446 18.7652 16.3193C19.458 16.0753 20.1419 15.7336 20.8258 15.3758C21.4919 14.8878 24.1386 13.2936 24.2008 13.1797C24.3163 13.1147 24.3873 12.8381 24.334 12.6266ZM18.3478 9.66605C17.8593 10.9511 17.0511 11.5205 16.2784 12.0085C16.7935 10.821 17.4951 9.73112 18.3478 9.66605Z" fill="#D4A52A"/>
<path d="M34.3932 12.6267C34.3576 12.4152 34.2067 12.2851 34.0912 12.3827C32.7056 13.3262 31.4267 14.1233 30.281 14.8228C29.0642 15.5222 27.9451 15.9777 26.8526 16.6121L26.9148 16.4332C27.5987 14.4812 28.2648 12.4803 28.9665 10.5445V10.5771C28.9665 10.5771 29.2152 10.0077 28.9842 9.79626C28.78 9.63359 28.6467 9.87759 28.5934 9.97519C28.478 10.2843 28.3625 10.6096 28.2293 10.9512C27.8829 10.4632 27.5365 9.91013 27.0658 9.94266C25.7158 9.94266 24.4368 11.3091 23.5842 13.1798C23.3355 13.7491 23.069 14.5462 23.3355 15.2457C23.673 15.7988 24.1526 15.3921 24.5168 15.1318C25.6358 14.1558 26.6839 12.9033 27.8296 12.0086C27.2967 13.6841 26.7638 15.3921 26.1332 16.9537C24.3835 18.4828 22.6427 20.4349 21.4703 23.3629C19.9249 27.4785 21.9233 28.3569 23.451 25.2499C24.4546 23.4117 25.2539 21.2157 26.0178 19.0522L26.453 17.7996C27.8651 16.9212 31.8441 14.9692 32.8744 14.0907C33.7093 13.5702 34.2422 13.2123 34.2599 13.1798C34.3754 13.1147 34.4376 12.8382 34.3932 12.6267ZM25.8046 12.9033C25.1029 13.5702 24.4368 14.4161 23.6375 14.7252C23.9839 13.3913 24.6233 12.4152 25.2983 11.7158C26 11.0163 26.8526 10.4957 27.652 11.0651C27.048 11.7646 26.4174 12.2851 25.8046 12.9033ZM22.5539 25.5264C21.2927 27.2019 21.195 25.8843 21.7546 24.1437C22.7227 21.5573 24.1881 19.7354 25.698 18.3527C24.7832 20.9229 23.8684 23.5744 22.5539 25.5264Z" fill="#D4A52A"/>
<path d="M35.8496 8.54376C35.6542 8.6251 35.4055 9.11311 35.6364 9.45471C35.9739 9.94272 36.4002 8.60883 35.8496 8.54376ZM41.2762 12.6268C41.2496 12.3828 41.1164 12.2852 40.9832 12.3502C40.2815 12.8383 38.9493 13.6841 38.9315 13.6841C37.0486 14.8879 34.1709 16.2218 33.638 15.6199C33.2206 15.0994 34.6416 12.3828 35.1834 11.4393C35.29 11.2766 35.3078 11.0163 35.2012 10.8211C35.1213 10.6422 34.9703 10.6422 34.8903 10.7886C34.5706 11.3092 33.0429 13.9281 33.1051 15.4898C33.1584 16.4658 33.7357 16.6122 34.1354 16.6122C35.3167 16.6122 37.315 15.5548 38.4164 14.9042C38.4164 14.9042 41.1253 13.1799 41.143 13.1799C41.2585 13.0823 41.3295 12.8383 41.2762 12.6268Z" fill="#D4A52A"/>
<path d="M51.2462 12.6267C51.2196 12.3827 51.0686 12.2851 50.9531 12.3502C50.6689 12.5616 50.1182 12.9033 50.1182 12.9033C48.1554 14.3022 45.1534 16.0103 44.656 15.5548C44.6205 15.5222 44.6205 15.4897 44.6205 15.4572C44.6116 15.1318 44.807 14.4812 45.1356 13.7166C45.4909 13.0822 45.6863 12.6593 46.1925 11.5206C46.2902 11.0976 45.8728 11.0326 45.7396 11.0163C45.6596 11.0163 45.5886 11.0163 45.5086 11.0163C45.5353 10.1541 45.2067 9.45465 44.7537 9.27571C43.6879 8.7877 42.6576 9.91013 41.8316 11.0326C41.3254 11.7646 40.7481 12.4478 40.4816 13.5377C40.3484 14.3022 40.8991 14.5462 41.1922 14.3348C42.5955 13.6841 43.9277 12.6918 45.3754 12.0086C45.109 12.4803 44.5583 13.7166 44.5583 13.7166C44.2919 14.4161 44.1231 15.0993 44.1586 15.5873C44.1764 15.8801 44.2741 16.1567 44.4428 16.3193C44.5405 16.4007 44.7093 16.4657 44.9047 16.4657C46.1392 16.4657 48.8393 14.6926 49.9317 13.9281C50.6511 13.4726 51.0952 13.1798 51.113 13.1798C51.2018 13.1147 51.2462 12.9846 51.264 12.8382C51.264 12.7406 51.264 12.6918 51.2462 12.6267ZM44.9757 11.3091C43.6257 11.9598 42.3468 12.9358 40.9968 13.5051C41.7251 12.1387 42.5955 10.8861 43.5902 10.2192C44.0876 9.87759 45.26 9.81253 44.9757 11.3091Z" fill="#D4A52A"/>
<path d="M61.6504 12.6266C61.5971 12.4152 61.4639 12.285 61.3484 12.3826C59.5188 13.6026 57.8846 14.6437 56.5079 15.4245C56.277 15.5872 56.0549 15.6686 55.8418 15.7987C54.9891 16.1891 54.1454 16.7747 53.2572 16.6446C53.6125 15.0016 54.3585 13.8466 54.9447 12.4965C55.1934 12.041 54.9447 11.2602 54.5895 11.4066C53.3283 11.6831 52.1292 12.529 50.9835 13.5376C51.5342 12.2362 52.2092 11.2277 52.8487 10.0564C52.8131 9.56843 52.5822 9.38949 52.3779 9.7311C51.5342 11.065 50.6638 12.4965 50.1486 14.3672C50.1131 15.0992 50.5838 14.9691 50.797 14.6925C51.9338 13.5701 53.1595 12.7405 54.4296 12.285C53.8967 13.3912 53.3283 14.416 52.9641 15.7011C52.8487 16.124 52.7332 16.7422 52.9464 17.1326C53.2927 17.7507 53.8612 17.5393 54.2964 17.4091C55.1046 17.1 56.6944 16.2216 56.6944 16.2216C59.1191 14.7901 61.4816 13.2122 61.5172 13.1797C61.6326 13.1146 61.7037 12.8706 61.6504 12.6266Z" fill="#D4A52A"/>
<path d="M70.0179 12.6266C69.9735 12.4152 69.8402 12.285 69.7248 12.3826C69.6093 12.4477 68.3215 13.2936 67.8063 13.6027C66.3053 14.6112 64.7777 15.5222 63.179 15.7662C62.6283 15.7987 61.9977 15.7662 61.5448 15.0342C61.2961 14.4811 61.5448 13.7165 61.6513 13.1472C62.4951 12.6592 63.3833 12.0736 64.076 10.9837C64.2981 10.6095 64.5112 10.0565 64.4135 9.45458C64.2448 8.7551 63.7474 8.7551 63.4099 8.96657C62.6283 9.45458 61.9444 10.4957 61.5181 11.7645C61.154 12.773 60.6211 14.8552 61.2872 15.7987C62.2109 17.0675 63.4454 16.6446 64.4491 16.3193C65.1418 16.0753 65.8257 15.7336 66.5096 15.3758C67.1757 14.8878 69.8225 13.2936 69.8846 13.1797C70.0001 13.1147 70.0712 12.8381 70.0179 12.6266ZM64.0316 9.66605C63.5431 10.9511 62.7349 11.5205 61.9622 12.0085C62.4773 10.821 63.179 9.73112 64.0316 9.66605Z" fill="#D4A52A"/>
<path d="M93.9386 12.594C93.8853 12.3825 93.7521 12.2524 93.6366 12.35C93.5034 12.4476 93.3524 12.5289 93.1748 12.6591C90.9366 14.2044 84.2664 18.8731 82.5168 16.8885H82.5345C82.4191 16.7421 82.3036 16.612 82.2325 16.3679C81.9483 15.6197 82.3036 14.0255 83.0852 12.106H83.1029C83.9645 9.94248 85.1013 7.99044 86.176 6.28241C87.0109 4.99732 87.7481 4.00503 88.5474 3.17541C88.7783 2.99648 88.956 2.89887 89.178 2.89887C89.2935 3.11034 89.1425 3.93996 89.0803 4.18397C88.9116 4.78585 88.7073 5.24132 88.5741 5.76187C88.4408 6.28241 88.7606 6.65655 88.956 6.28241C89.3912 5.37146 89.6221 4.42797 89.6931 3.41942C89.7109 2.86634 89.6399 2.4434 89.4889 2.19939C89.3734 2.05299 89.1958 1.89032 88.8405 2.06926C88.4764 2.26446 88.1122 2.5898 87.7747 2.99648C87.0286 3.59835 84.7816 7.16083 83.7691 9.30807C83.2717 10.219 82.8987 11.0649 82.5878 11.9271C81.7352 14.1231 81.4687 15.8637 81.8329 16.856C81.9483 17.165 82.0727 17.3765 82.2059 17.5554H82.2148C82.5878 18.0272 83.1385 18.2387 83.8135 18.2387C86.1494 18.2387 89.9951 15.7986 93.3346 13.4724C93.6188 13.2935 94.054 13.1145 93.9386 12.594Z" fill="#D4A52A"/>
<path d="M103.92 12.6267C103.893 12.3827 103.742 12.2851 103.627 12.3502C103.342 12.5616 102.792 12.9033 102.792 12.9033C100.829 14.3022 97.827 16.0103 97.3296 15.5548C97.2941 15.5222 97.2941 15.4897 97.2941 15.4572C97.2852 15.1318 97.4806 14.4812 97.8092 13.7166C98.1645 13.0822 98.3599 12.6593 98.8661 11.5206C98.9638 11.0976 98.5464 11.0326 98.4131 11.0163C98.3332 11.0163 98.2622 11.0163 98.1822 11.0163C98.2089 10.1541 97.8802 9.45465 97.4273 9.27571C96.3615 8.7877 95.3312 9.91013 94.5052 11.0326C93.999 11.7646 93.4217 12.4478 93.1552 13.5377C93.022 14.3022 93.5726 14.5462 93.8657 14.3348C95.269 13.6841 96.6013 12.6918 98.049 12.0086C97.7825 12.4803 97.2319 13.7166 97.2319 13.7166C96.9654 14.4161 96.7967 15.0993 96.8322 15.5873C96.85 15.8801 96.9477 16.1567 97.1164 16.3193C97.2141 16.4007 97.3829 16.4657 97.5783 16.4657C98.8128 16.4657 101.513 14.6926 102.605 13.9281C103.325 13.4726 103.769 13.1798 103.787 13.1798C103.875 13.1147 103.92 12.9846 103.938 12.8382C103.938 12.7406 103.938 12.6918 103.92 12.6267ZM97.6493 11.3091C96.2993 11.9598 95.0204 12.9358 93.6703 13.5051C94.3986 12.1387 95.269 10.8861 96.2638 10.2192C96.7612 9.87759 97.9335 9.81253 97.6493 11.3091Z" fill="#D4A52A"/>
<path d="M113.293 12.5942C113.24 12.3827 113.107 12.2526 112.974 12.3502C112.325 12.7731 111.695 13.2123 111.082 13.6027V13.5702C107.911 15.6687 104.287 17.4743 103.941 16.8399C103.834 16.3681 104.136 15.6687 104.385 15.0993C104.616 14.5788 104.953 13.8793 104.749 13.2286C104.687 12.9846 104.572 12.7731 104.421 12.6267C104.856 11.9923 105.282 11.2766 105.486 10.3005C105.584 9.84507 105.522 9.17812 105.22 9.03172C104.767 8.90158 104.421 9.55226 104.136 10.0891C103.852 10.7398 103.541 11.4392 103.541 12.2851C103.541 12.2851 103.541 12.2851 103.541 12.3177C103.683 13.1798 104.19 12.9846 104.323 13.6353C104.403 14.0582 102.227 18.0274 104.305 17.7996C104.882 17.7508 105.886 17.4743 107.653 16.5308C108.781 15.9127 109.909 15.2457 110.593 14.8228C112.041 13.9118 113.125 13.1798 113.142 13.1473C113.276 13.0822 113.329 12.8057 113.293 12.5942ZM103.985 12.1062C104.216 11.1627 104.589 10.3331 105.087 9.81253C104.882 10.7886 104.456 11.5206 103.985 12.1062Z" fill="#D4A52A"/>
<path d="M124.326 12.6266C124.273 12.4152 124.14 12.285 124.024 12.3826C123.793 12.4802 121.164 14.4485 119.717 14.8227C118.482 15.0341 116.954 15.0341 116.119 13.017C116.501 12.4477 116.883 11.8621 117.185 11.1301C117.336 10.7397 117.469 10.154 117.283 9.7311C117.017 9.11296 116.519 9.3407 116.235 9.76364C115.738 10.4306 115.587 11.6181 115.569 12.6917C114.618 13.9117 113.624 15.0341 112.54 15.7662C112.878 14.0581 113.508 12.6266 113.837 10.9511C113.872 10.4631 113.544 10.2191 113.393 10.821C112.958 12.529 112.274 14.0256 112.061 15.88C112.078 16.7747 112.638 16.6446 112.975 16.4006C113.952 15.6686 114.858 14.66 115.738 13.5376C116.404 15.2131 117.567 15.7662 118.633 15.7662C120.534 15.7662 122.363 14.4485 124.193 13.1797C124.308 13.1146 124.379 12.8381 124.326 12.6266ZM115.986 12.0736C116.173 11.2277 116.421 10.3004 116.954 10.089C116.732 10.9186 116.368 11.5205 115.986 12.0736Z" fill="#D4A52A"/>
<path d="M134.292 12.6267C134.265 12.3827 134.114 12.2851 133.999 12.3502C133.715 12.5616 133.164 12.9033 133.164 12.9033C131.201 14.3022 128.199 16.0103 127.702 15.5548C127.666 15.5222 127.666 15.4897 127.666 15.4572C127.657 15.1318 127.853 14.4812 128.181 13.7166C128.537 13.0822 128.732 12.6593 129.238 11.5206C129.336 11.0976 128.918 11.0326 128.785 11.0163C128.705 11.0163 128.634 11.0163 128.554 11.0163C128.581 10.1541 128.252 9.45465 127.799 9.27571C126.734 8.7877 125.703 9.91013 124.877 11.0326C124.371 11.7646 123.794 12.4478 123.527 13.5377C123.394 14.3022 123.945 14.5462 124.238 14.3348C125.641 13.6841 126.973 12.6918 128.421 12.0086C128.155 12.4803 127.604 13.7166 127.604 13.7166C127.338 14.4161 127.169 15.0993 127.204 15.5873C127.222 15.8801 127.32 16.1567 127.488 16.3193C127.586 16.4007 127.755 16.4657 127.95 16.4657C129.185 16.4657 131.885 14.6926 132.977 13.9281C133.697 13.4726 134.141 13.1798 134.159 13.1798C134.247 13.1147 134.292 12.9846 134.31 12.8382C134.31 12.7406 134.31 12.6918 134.292 12.6267ZM128.021 11.3091C126.671 11.9598 125.392 12.9358 124.042 13.5051C124.771 12.1387 125.641 10.8861 126.636 10.2192C127.133 9.87759 128.306 9.81253 128.021 11.3091Z" fill="#D4A52A"/>
<path d="M145.664 12.6265C145.611 12.4151 145.478 12.2849 145.362 12.3825C139.554 16.1077 138.221 16.6445 135.513 17.2626C135.175 17.2626 133.408 17.6205 133.63 16.0751C133.727 15.0341 133.976 14.058 134.322 13.2284C136.64 10.9836 139.003 8.82006 141.081 5.82693C141.596 4.99732 142.2 4.18397 142.449 2.96394C142.582 2.41087 142.351 1.74392 142.032 1.71138C141.552 1.61378 141.081 1.95539 140.637 2.297C137.893 4.67198 135.459 8.29952 133.745 12.9356C133.328 14.1719 133.159 15.0015 133.141 16.189C133.141 18.4501 134.722 18.1411 135.513 18.1411C138.372 17.6856 140.602 16.2866 140.637 16.2541C143.08 14.8226 145.496 13.2122 145.513 13.1796C145.646 13.1145 145.691 12.8705 145.664 12.6265ZM140.415 3.45195C140.93 2.96394 141.463 2.55727 142.049 2.541C141.65 4.0213 140.886 5.02985 140.167 6.00587C138.488 8.20192 136.676 10.0401 134.829 11.7481C136.303 8.23445 138.275 5.48533 140.415 3.45195Z" fill="#D4A52A"/>
<path d="M155.628 12.5941C155.583 12.3827 155.45 12.2525 155.335 12.3501C153.381 13.6027 151.702 14.8878 149.988 15.9451C148.62 16.7748 147.572 17.2953 147.288 17.1977C147.288 16.2542 148.327 15.0017 148.469 13.928C148.505 13.44 148.203 13.2123 147.99 13.2611C146.977 13.44 146.062 14.2696 145.147 15.0342C145.396 13.3587 146.346 12.8382 147.075 12.0085C148.958 10.0077 150.903 8.05565 152.43 5.19266C152.981 4.05397 153.647 2.68754 153.47 1.04457C153.354 0.182423 152.821 -0.110383 152.386 0.0360195C151.32 0.393894 150.441 1.64645 149.588 2.83394C147.412 6.10361 145.68 10.3981 144.632 15.1806C144.561 15.6198 144.375 16.5958 144.828 16.3518C145.814 15.4571 146.791 14.5137 147.892 14.1232C147.59 14.8553 146.462 16.7097 146.942 17.7833C147.013 17.8972 147.075 18.0436 147.341 18.0436C147.776 18.0436 148.736 17.6532 151.036 16.1892C152.635 15.1481 154.198 14.0256 154.518 13.7816C155.095 13.4238 155.477 13.1798 155.477 13.1472C155.61 13.0822 155.663 12.8382 155.628 12.5941ZM151.116 1.92299C151.631 1.40245 152.199 0.735501 152.821 0.914438C153.114 1.04457 153.017 1.80912 152.963 2.19953C152.688 3.59849 152.048 4.70465 151.453 5.69694C149.784 8.33219 147.821 10.1866 145.929 12.1712C147.172 8.08819 148.958 4.46064 151.116 1.92299Z" fill="#D4A52A"/>
<path d="M164.335 12.6267C164.282 12.4152 164.148 12.2851 164.033 12.3827C163.9 12.4803 163.065 13.0171 162.985 13.0821C160.125 14.9366 158.304 14.6112 157.443 14.172C157.976 12.8056 158.091 10.7722 157.46 9.4546C156.945 8.29964 155.844 8.57618 155.444 9.845C155.142 10.6096 155.231 11.6181 155.382 12.4803C154.876 13.3587 154.343 14.2696 154.068 15.4897C153.881 16.1891 154.228 17.0188 154.645 17.0188C155.595 17.1326 156.448 16.1078 157.079 14.904L157.096 14.8878C157.496 15.1318 158.109 15.3758 158.97 15.3758C159.921 15.3758 161.137 15.0992 162.665 14.172C162.718 14.1558 164.184 13.2123 164.202 13.1797C164.317 13.1147 164.379 12.8707 164.335 12.6267ZM157.389 11.1626C157.54 12.1712 157.247 13.0821 156.945 13.8792C156.528 13.5376 156.244 13.1472 156.013 12.6592C156.395 11.8621 156.128 11.5856 155.746 11.9597C155.515 9.30819 157.212 8.69005 157.389 11.1626ZM154.45 16.0753C154.698 14.9366 155.16 14.0582 155.631 13.2123C155.924 13.7165 156.261 14.172 156.608 14.5787C156.013 15.5222 155.267 16.3681 154.45 16.0753Z" fill="#D4A52A"/>
</g>
<defs>
<clipPath id="clip0_384_2">
<rect width="165" height="28" fill="white"/>
</clipPath>
</defs>
</svg>
