<svg width="29" height="26" viewBox="0 0 29 26" fill="none" xmlns="http://www.w3.org/2000/svg">
<g clip-path="url(#clip0_15_182)">
<path d="M15.2853 16.9758C15.4545 16.5858 15.3458 16.1416 15.0074 15.8383L12.482 13.6066L12.5183 13.5741C14.6208 11.4725 16.1191 9.05663 17.0012 6.49996H19.3453C19.9978 6.49996 20.5416 6.01246 20.5416 5.42746V5.40579C20.5416 4.82079 19.9978 4.33329 19.3453 4.33329H12.0833V3.24996C12.0833 2.65413 11.5395 2.16663 10.8749 2.16663C10.2103 2.16663 9.66659 2.65413 9.66659 3.24996V4.33329H2.4045C1.752 4.33329 1.20825 4.82079 1.20825 5.40579C1.20825 6.00163 1.752 6.47829 2.4045 6.47829H14.7053C13.8958 8.57996 12.6149 10.5625 10.8749 12.2958C9.89617 11.3316 9.0745 10.2808 8.38575 9.17579C8.19242 8.86163 7.842 8.66663 7.44325 8.66663C6.6095 8.66663 6.07784 9.47913 6.48867 10.1291C7.24992 11.3533 8.18034 12.5233 9.26784 13.6066L3.98742 18.2758C3.50409 18.6983 3.50409 19.3916 3.98742 19.8141C4.45867 20.2366 5.21992 20.2366 5.70325 19.8141L10.8749 15.1666L13.3158 17.355C13.932 17.9075 14.9833 17.7016 15.2853 16.9758ZM21.1458 10.8333C20.4208 10.8333 19.7683 11.2341 19.5145 11.8516L15.0799 22.4683C14.7899 23.1291 15.3458 23.8333 16.1312 23.8333C16.6024 23.8333 17.0253 23.5733 17.1945 23.1725L18.2699 20.5833H24.0095L25.097 23.1725C25.2662 23.5625 25.6891 23.8333 26.1603 23.8333C26.9458 23.8333 27.5016 23.1291 27.2237 22.4683L22.7891 11.8516C22.5233 11.2341 21.8708 10.8333 21.1458 10.8333ZM19.1883 18.4166L21.1458 13.7258L23.1033 18.4166H19.1883Z" fill="url(#paint0_linear_15_182)"/>
</g>
<defs>
<linearGradient id="paint0_linear_15_182" x1="14.2522" y1="2.16663" x2="14.2522" y2="23.8333" gradientUnits="userSpaceOnUse">
<stop stop-color="#541EED"/>
<stop offset="0.9999" stop-color="#5A17E8"/>
<stop offset="1" stop-color="#800ADD"/>
</linearGradient>
<clipPath id="clip0_15_182">
<rect width="29" height="26" fill="white"/>
</clipPath>
</defs>
</svg>
