<svg xmlns="http://www.w3.org/2000/svg" xmlns:xlink="http://www.w3.org/1999/xlink" width="500" zoomAndPan="magnify" viewBox="0 0 375 374.999991" height="500" preserveAspectRatio="xMidYMid meet" version="1.0"><defs><g/></defs><g fill="#000000" fill-opacity="1"><g transform="translate(122.919496, 199.201843)"><g><path d="M 34.671875 -1.609375 C 43.125 -2.0625 50.875 -5.734375 56.5 -12.078125 C 56.59375 -12.1875 56.578125 -12.265625 56.484375 -12.4375 C 56.375 -12.53125 56.1875 -12.515625 56.125 -12.421875 C 50.578125 -6.171875 42.921875 -2.515625 34.640625 -2.0625 C 21.5 -1.34375 10.03125 -14.71875 9.109375 -31.90625 C 8.171875 -49.078125 18.140625 -63.625 31.28125 -64.34375 C 39.5625 -64.796875 47.5625 -61.96875 53.734375 -56.4375 C 53.828125 -56.34375 54.015625 -56.359375 54.09375 -56.453125 C 54.1875 -56.5625 54.171875 -56.734375 54.078125 -56.8125 C 47.796875 -62.4375 39.703125 -65.25 31.25 -64.796875 C 22.796875 -64.34375 15.03125 -60.65625 9.34375 -54.390625 C -2.328125 -41.40625 -1.25 -21.328125 11.765625 -9.65625 C 18.109375 -3.953125 26.21875 -1.15625 34.671875 -1.609375 Z M 34.671875 -1.609375 "/></g></g></g><g fill="#000000" fill-opacity="1"><g transform="translate(111.642009, 217.570751)"><g><path d="M 1.71875 0.046875 C 1.445312 0.046875 1.207031 0 1 -0.09375 C 0.800781 -0.1875 0.640625 -0.316406 0.515625 -0.484375 C 0.398438 -0.660156 0.335938 -0.851562 0.328125 -1.0625 L 0.765625 -1.0625 C 0.785156 -0.863281 0.875 -0.6875 1.03125 -0.53125 C 1.1875 -0.382812 1.414062 -0.3125 1.71875 -0.3125 C 2 -0.3125 2.222656 -0.378906 2.390625 -0.515625 C 2.554688 -0.660156 2.640625 -0.84375 2.640625 -1.0625 C 2.640625 -1.238281 2.59375 -1.378906 2.5 -1.484375 C 2.40625 -1.597656 2.289062 -1.679688 2.15625 -1.734375 C 2.019531 -1.785156 1.835938 -1.84375 1.609375 -1.90625 C 1.328125 -1.988281 1.101562 -2.0625 0.9375 -2.125 C 0.78125 -2.195312 0.644531 -2.304688 0.53125 -2.453125 C 0.414062 -2.609375 0.359375 -2.816406 0.359375 -3.078125 C 0.359375 -3.285156 0.414062 -3.472656 0.53125 -3.640625 C 0.644531 -3.804688 0.800781 -3.9375 1 -4.03125 C 1.195312 -4.125 1.425781 -4.171875 1.6875 -4.171875 C 2.070312 -4.171875 2.378906 -4.078125 2.609375 -3.890625 C 2.847656 -3.703125 2.984375 -3.460938 3.015625 -3.171875 L 2.5625 -3.171875 C 2.539062 -3.335938 2.453125 -3.488281 2.296875 -3.625 C 2.140625 -3.757812 1.925781 -3.828125 1.65625 -3.828125 C 1.40625 -3.828125 1.195312 -3.757812 1.03125 -3.625 C 0.863281 -3.488281 0.78125 -3.304688 0.78125 -3.078125 C 0.78125 -2.910156 0.828125 -2.769531 0.921875 -2.65625 C 1.015625 -2.550781 1.128906 -2.472656 1.265625 -2.421875 C 1.398438 -2.367188 1.582031 -2.3125 1.8125 -2.25 C 2.082031 -2.164062 2.300781 -2.085938 2.46875 -2.015625 C 2.632812 -1.941406 2.769531 -1.832031 2.875 -1.6875 C 2.988281 -1.539062 3.046875 -1.34375 3.046875 -1.09375 C 3.046875 -0.894531 2.992188 -0.707031 2.890625 -0.53125 C 2.796875 -0.363281 2.644531 -0.222656 2.4375 -0.109375 C 2.238281 -0.00390625 2 0.046875 1.71875 0.046875 Z M 1.71875 0.046875 "/></g></g></g><g fill="#000000" fill-opacity="1"><g transform="translate(115.018019, 217.570751)"><g><path d="M 0.28125 -1.625 C 0.28125 -1.945312 0.34375 -2.234375 0.46875 -2.484375 C 0.601562 -2.734375 0.785156 -2.925781 1.015625 -3.0625 C 1.253906 -3.195312 1.523438 -3.265625 1.828125 -3.265625 C 2.128906 -3.265625 2.390625 -3.191406 2.609375 -3.046875 C 2.835938 -2.910156 3 -2.734375 3.09375 -2.515625 L 3.09375 -3.21875 L 3.515625 -3.21875 L 3.515625 0 L 3.09375 0 L 3.09375 -0.71875 C 3 -0.5 2.835938 -0.316406 2.609375 -0.171875 C 2.390625 -0.0234375 2.125 0.046875 1.8125 0.046875 C 1.519531 0.046875 1.253906 -0.0195312 1.015625 -0.15625 C 0.785156 -0.289062 0.601562 -0.484375 0.46875 -0.734375 C 0.34375 -0.992188 0.28125 -1.289062 0.28125 -1.625 Z M 3.09375 -1.609375 C 3.09375 -1.867188 3.039062 -2.097656 2.9375 -2.296875 C 2.832031 -2.492188 2.6875 -2.644531 2.5 -2.75 C 2.320312 -2.851562 2.125 -2.90625 1.90625 -2.90625 C 1.675781 -2.90625 1.46875 -2.851562 1.28125 -2.75 C 1.101562 -2.65625 0.960938 -2.507812 0.859375 -2.3125 C 0.753906 -2.113281 0.703125 -1.882812 0.703125 -1.625 C 0.703125 -1.351562 0.753906 -1.117188 0.859375 -0.921875 C 0.960938 -0.722656 1.101562 -0.570312 1.28125 -0.46875 C 1.46875 -0.363281 1.675781 -0.3125 1.90625 -0.3125 C 2.125 -0.3125 2.320312 -0.363281 2.5 -0.46875 C 2.6875 -0.570312 2.832031 -0.722656 2.9375 -0.921875 C 3.039062 -1.117188 3.09375 -1.347656 3.09375 -1.609375 Z M 3.09375 -1.609375 "/></g></g></g><g fill="#000000" fill-opacity="1"><g transform="translate(119.001945, 217.570751)"><g><path d="M 0.890625 -4.375 L 0.890625 0 L 0.46875 0 L 0.46875 -4.375 Z M 0.890625 -4.375 "/></g></g></g><g fill="#000000" fill-opacity="1"><g transform="translate(120.353529, 217.570751)"><g><path d="M 1.890625 0.046875 C 1.578125 0.046875 1.300781 -0.0195312 1.0625 -0.15625 C 0.820312 -0.289062 0.628906 -0.484375 0.484375 -0.734375 C 0.347656 -0.984375 0.28125 -1.273438 0.28125 -1.609375 C 0.28125 -1.941406 0.347656 -2.234375 0.484375 -2.484375 C 0.628906 -2.734375 0.820312 -2.925781 1.0625 -3.0625 C 1.3125 -3.195312 1.585938 -3.265625 1.890625 -3.265625 C 2.191406 -3.265625 2.46875 -3.195312 2.71875 -3.0625 C 2.96875 -2.925781 3.160156 -2.734375 3.296875 -2.484375 C 3.441406 -2.234375 3.515625 -1.941406 3.515625 -1.609375 C 3.515625 -1.273438 3.441406 -0.984375 3.296875 -0.734375 C 3.148438 -0.484375 2.953125 -0.289062 2.703125 -0.15625 C 2.460938 -0.0195312 2.191406 0.046875 1.890625 0.046875 Z M 1.890625 -0.3125 C 2.097656 -0.3125 2.289062 -0.359375 2.46875 -0.453125 C 2.65625 -0.554688 2.800781 -0.703125 2.90625 -0.890625 C 3.019531 -1.085938 3.078125 -1.328125 3.078125 -1.609375 C 3.078125 -1.890625 3.019531 -2.128906 2.90625 -2.328125 C 2.800781 -2.523438 2.65625 -2.671875 2.46875 -2.765625 C 2.289062 -2.859375 2.097656 -2.90625 1.890625 -2.90625 C 1.679688 -2.90625 1.484375 -2.859375 1.296875 -2.765625 C 1.117188 -2.671875 0.972656 -2.523438 0.859375 -2.328125 C 0.753906 -2.128906 0.703125 -1.890625 0.703125 -1.609375 C 0.703125 -1.328125 0.753906 -1.085938 0.859375 -0.890625 C 0.972656 -0.703125 1.117188 -0.554688 1.296875 -0.453125 C 1.472656 -0.359375 1.671875 -0.3125 1.890625 -0.3125 Z M 1.890625 -0.3125 "/></g></g></g><g fill="#000000" fill-opacity="1"><g transform="translate(124.142686, 217.570751)"><g><path d="M 1.984375 -3.28125 C 2.367188 -3.28125 2.679688 -3.160156 2.921875 -2.921875 C 3.171875 -2.679688 3.296875 -2.335938 3.296875 -1.890625 L 3.296875 0 L 2.890625 0 L 2.890625 -1.84375 C 2.890625 -2.195312 2.800781 -2.460938 2.625 -2.640625 C 2.445312 -2.828125 2.207031 -2.921875 1.90625 -2.921875 C 1.59375 -2.921875 1.34375 -2.820312 1.15625 -2.625 C 0.976562 -2.425781 0.890625 -2.140625 0.890625 -1.765625 L 0.890625 0 L 0.46875 0 L 0.46875 -3.21875 L 0.890625 -3.21875 L 0.890625 -2.671875 C 0.992188 -2.867188 1.140625 -3.019531 1.328125 -3.125 C 1.523438 -3.226562 1.742188 -3.28125 1.984375 -3.28125 Z M 1.984375 -3.28125 "/></g></g></g><g fill="#000000" fill-opacity="1"><g transform="translate(127.878724, 217.570751)"><g/></g></g><g fill="#000000" fill-opacity="1"><g transform="translate(129.495904, 217.570751)"><g><path d="M 0.28125 -1.625 C 0.28125 -1.945312 0.34375 -2.234375 0.46875 -2.484375 C 0.601562 -2.734375 0.785156 -2.925781 1.015625 -3.0625 C 1.253906 -3.195312 1.523438 -3.265625 1.828125 -3.265625 C 2.128906 -3.265625 2.390625 -3.191406 2.609375 -3.046875 C 2.835938 -2.910156 3 -2.734375 3.09375 -2.515625 L 3.09375 -3.21875 L 3.515625 -3.21875 L 3.515625 0 L 3.09375 0 L 3.09375 -0.71875 C 3 -0.5 2.835938 -0.316406 2.609375 -0.171875 C 2.390625 -0.0234375 2.125 0.046875 1.8125 0.046875 C 1.519531 0.046875 1.253906 -0.0195312 1.015625 -0.15625 C 0.785156 -0.289062 0.601562 -0.484375 0.46875 -0.734375 C 0.34375 -0.992188 0.28125 -1.289062 0.28125 -1.625 Z M 3.09375 -1.609375 C 3.09375 -1.867188 3.039062 -2.097656 2.9375 -2.296875 C 2.832031 -2.492188 2.6875 -2.644531 2.5 -2.75 C 2.320312 -2.851562 2.125 -2.90625 1.90625 -2.90625 C 1.675781 -2.90625 1.46875 -2.851562 1.28125 -2.75 C 1.101562 -2.65625 0.960938 -2.507812 0.859375 -2.3125 C 0.753906 -2.113281 0.703125 -1.882812 0.703125 -1.625 C 0.703125 -1.351562 0.753906 -1.117188 0.859375 -0.921875 C 0.960938 -0.722656 1.101562 -0.570312 1.28125 -0.46875 C 1.46875 -0.363281 1.675781 -0.3125 1.90625 -0.3125 C 2.125 -0.3125 2.320312 -0.363281 2.5 -0.46875 C 2.6875 -0.570312 2.832031 -0.722656 2.9375 -0.921875 C 3.039062 -1.117188 3.09375 -1.347656 3.09375 -1.609375 Z M 3.09375 -1.609375 "/></g></g></g><g fill="#000000" fill-opacity="1"><g transform="translate(133.479829, 217.570751)"><g><path d="M 1.984375 -3.28125 C 2.367188 -3.28125 2.679688 -3.160156 2.921875 -2.921875 C 3.171875 -2.679688 3.296875 -2.335938 3.296875 -1.890625 L 3.296875 0 L 2.890625 0 L 2.890625 -1.84375 C 2.890625 -2.195312 2.800781 -2.460938 2.625 -2.640625 C 2.445312 -2.828125 2.207031 -2.921875 1.90625 -2.921875 C 1.59375 -2.921875 1.34375 -2.820312 1.15625 -2.625 C 0.976562 -2.425781 0.890625 -2.140625 0.890625 -1.765625 L 0.890625 0 L 0.46875 0 L 0.46875 -3.21875 L 0.890625 -3.21875 L 0.890625 -2.671875 C 0.992188 -2.867188 1.140625 -3.019531 1.328125 -3.125 C 1.523438 -3.226562 1.742188 -3.28125 1.984375 -3.28125 Z M 1.984375 -3.28125 "/></g></g></g><g fill="#000000" fill-opacity="1"><g transform="translate(137.215869, 217.570751)"><g><path d="M 0.28125 -1.625 C 0.28125 -1.945312 0.347656 -2.234375 0.484375 -2.484375 C 0.617188 -2.734375 0.800781 -2.925781 1.03125 -3.0625 C 1.269531 -3.195312 1.535156 -3.265625 1.828125 -3.265625 C 2.109375 -3.265625 2.363281 -3.195312 2.59375 -3.0625 C 2.820312 -2.925781 2.988281 -2.75 3.09375 -2.53125 L 3.09375 -4.375 L 3.515625 -4.375 L 3.515625 0 L 3.09375 0 L 3.09375 -0.71875 C 3 -0.5 2.835938 -0.316406 2.609375 -0.171875 C 2.390625 -0.0234375 2.128906 0.046875 1.828125 0.046875 C 1.523438 0.046875 1.253906 -0.0195312 1.015625 -0.15625 C 0.785156 -0.289062 0.601562 -0.484375 0.46875 -0.734375 C 0.34375 -0.992188 0.28125 -1.289062 0.28125 -1.625 Z M 3.09375 -1.609375 C 3.09375 -1.867188 3.039062 -2.097656 2.9375 -2.296875 C 2.832031 -2.492188 2.6875 -2.644531 2.5 -2.75 C 2.320312 -2.851562 2.125 -2.90625 1.90625 -2.90625 C 1.675781 -2.90625 1.46875 -2.851562 1.28125 -2.75 C 1.101562 -2.65625 0.960938 -2.507812 0.859375 -2.3125 C 0.753906 -2.113281 0.703125 -1.882812 0.703125 -1.625 C 0.703125 -1.351562 0.753906 -1.117188 0.859375 -0.921875 C 0.960938 -0.722656 1.101562 -0.570312 1.28125 -0.46875 C 1.46875 -0.363281 1.675781 -0.3125 1.90625 -0.3125 C 2.125 -0.3125 2.320312 -0.363281 2.5 -0.46875 C 2.6875 -0.570312 2.832031 -0.722656 2.9375 -0.921875 C 3.039062 -1.117188 3.09375 -1.347656 3.09375 -1.609375 Z M 3.09375 -1.609375 "/></g></g></g><g fill="#000000" fill-opacity="1"><g transform="translate(141.199795, 217.570751)"><g/></g></g><g fill="#000000" fill-opacity="1"><g transform="translate(142.816973, 217.570751)"><g><path d="M 0.890625 -3.796875 L 0.890625 -2.25 L 2.453125 -2.25 L 2.453125 -1.90625 L 0.890625 -1.90625 L 0.890625 -0.34375 L 2.625 -0.34375 L 2.625 0 L 0.46875 0 L 0.46875 -4.140625 L 2.625 -4.140625 L 2.625 -3.796875 Z M 0.890625 -3.796875 "/></g></g></g><g fill="#000000" fill-opacity="1"><g transform="translate(145.785736, 217.570751)"><g><path d="M 1.578125 0.046875 C 1.210938 0.046875 0.910156 -0.0351562 0.671875 -0.203125 C 0.441406 -0.378906 0.3125 -0.613281 0.28125 -0.90625 L 0.703125 -0.90625 C 0.722656 -0.726562 0.804688 -0.582031 0.953125 -0.46875 C 1.109375 -0.351562 1.316406 -0.296875 1.578125 -0.296875 C 1.796875 -0.296875 1.96875 -0.347656 2.09375 -0.453125 C 2.226562 -0.566406 2.296875 -0.703125 2.296875 -0.859375 C 2.296875 -0.960938 2.257812 -1.050781 2.1875 -1.125 C 2.113281 -1.195312 2.023438 -1.253906 1.921875 -1.296875 C 1.816406 -1.335938 1.671875 -1.378906 1.484375 -1.421875 C 1.242188 -1.492188 1.046875 -1.5625 0.890625 -1.625 C 0.742188 -1.6875 0.617188 -1.773438 0.515625 -1.890625 C 0.410156 -2.015625 0.359375 -2.179688 0.359375 -2.390625 C 0.359375 -2.554688 0.40625 -2.703125 0.5 -2.828125 C 0.59375 -2.960938 0.722656 -3.066406 0.890625 -3.140625 C 1.066406 -3.222656 1.269531 -3.265625 1.5 -3.265625 C 1.84375 -3.265625 2.117188 -3.175781 2.328125 -3 C 2.546875 -2.832031 2.660156 -2.59375 2.671875 -2.28125 L 2.265625 -2.28125 C 2.253906 -2.46875 2.179688 -2.617188 2.046875 -2.734375 C 1.910156 -2.859375 1.722656 -2.921875 1.484375 -2.921875 C 1.273438 -2.921875 1.101562 -2.867188 0.96875 -2.765625 C 0.84375 -2.671875 0.78125 -2.550781 0.78125 -2.40625 C 0.78125 -2.28125 0.816406 -2.175781 0.890625 -2.09375 C 0.972656 -2.007812 1.070312 -1.945312 1.1875 -1.90625 C 1.300781 -1.863281 1.453125 -1.8125 1.640625 -1.75 C 1.867188 -1.6875 2.050781 -1.625 2.1875 -1.5625 C 2.332031 -1.507812 2.453125 -1.425781 2.546875 -1.3125 C 2.648438 -1.195312 2.703125 -1.046875 2.703125 -0.859375 C 2.703125 -0.679688 2.65625 -0.523438 2.5625 -0.390625 C 2.46875 -0.253906 2.332031 -0.144531 2.15625 -0.0625 C 1.988281 0.0078125 1.796875 0.046875 1.578125 0.046875 Z M 1.578125 0.046875 "/></g></g></g><g fill="#000000" fill-opacity="1"><g transform="translate(148.795814, 217.570751)"><g><path d="M 1.015625 -2.875 L 1.015625 -0.875 C 1.015625 -0.675781 1.050781 -0.539062 1.125 -0.46875 C 1.195312 -0.394531 1.328125 -0.359375 1.515625 -0.359375 L 1.890625 -0.359375 L 1.890625 0 L 1.453125 0 C 1.160156 0 0.941406 -0.0664062 0.796875 -0.203125 C 0.660156 -0.335938 0.59375 -0.5625 0.59375 -0.875 L 0.59375 -2.875 L 0.140625 -2.875 L 0.140625 -3.21875 L 0.59375 -3.21875 L 0.59375 -4.03125 L 1.015625 -4.03125 L 1.015625 -3.21875 L 1.890625 -3.21875 L 1.890625 -2.875 Z M 1.015625 -2.875 "/></g></g></g><g fill="#000000" fill-opacity="1"><g transform="translate(150.896967, 217.570751)"><g><path d="M 2.015625 -3.28125 C 2.253906 -3.28125 2.46875 -3.226562 2.65625 -3.125 C 2.851562 -3.03125 3.007812 -2.875 3.125 -2.65625 C 3.238281 -2.445312 3.296875 -2.191406 3.296875 -1.890625 L 3.296875 0 L 2.890625 0 L 2.890625 -1.84375 C 2.890625 -2.195312 2.800781 -2.460938 2.625 -2.640625 C 2.445312 -2.828125 2.207031 -2.921875 1.90625 -2.921875 C 1.59375 -2.921875 1.34375 -2.820312 1.15625 -2.625 C 0.976562 -2.425781 0.890625 -2.140625 0.890625 -1.765625 L 0.890625 0 L 0.46875 0 L 0.46875 -4.375 L 0.890625 -4.375 L 0.890625 -2.671875 C 0.992188 -2.867188 1.144531 -3.019531 1.34375 -3.125 C 1.539062 -3.226562 1.765625 -3.28125 2.015625 -3.28125 Z M 2.015625 -3.28125 "/></g></g></g><g fill="#000000" fill-opacity="1"><g transform="translate(154.633004, 217.570751)"><g><path d="M 3.390625 -1.78125 C 3.390625 -1.632812 3.382812 -1.523438 3.375 -1.453125 L 0.703125 -1.453125 C 0.710938 -1.210938 0.769531 -1.003906 0.875 -0.828125 C 0.988281 -0.648438 1.128906 -0.515625 1.296875 -0.421875 C 1.472656 -0.335938 1.660156 -0.296875 1.859375 -0.296875 C 2.128906 -0.296875 2.351562 -0.359375 2.53125 -0.484375 C 2.71875 -0.617188 2.84375 -0.796875 2.90625 -1.015625 L 3.34375 -1.015625 C 3.257812 -0.703125 3.085938 -0.445312 2.828125 -0.25 C 2.578125 -0.0507812 2.253906 0.046875 1.859375 0.046875 C 1.554688 0.046875 1.285156 -0.0195312 1.046875 -0.15625 C 0.804688 -0.289062 0.617188 -0.484375 0.484375 -0.734375 C 0.347656 -0.984375 0.28125 -1.273438 0.28125 -1.609375 C 0.28125 -1.941406 0.347656 -2.234375 0.484375 -2.484375 C 0.617188 -2.742188 0.804688 -2.9375 1.046875 -3.0625 C 1.285156 -3.195312 1.554688 -3.265625 1.859375 -3.265625 C 2.171875 -3.265625 2.441406 -3.195312 2.671875 -3.0625 C 2.898438 -2.9375 3.078125 -2.757812 3.203125 -2.53125 C 3.328125 -2.300781 3.390625 -2.050781 3.390625 -1.78125 Z M 2.96875 -1.796875 C 2.976562 -2.035156 2.929688 -2.238281 2.828125 -2.40625 C 2.722656 -2.570312 2.582031 -2.695312 2.40625 -2.78125 C 2.238281 -2.875 2.050781 -2.921875 1.84375 -2.921875 C 1.539062 -2.921875 1.28125 -2.820312 1.0625 -2.625 C 0.84375 -2.425781 0.722656 -2.148438 0.703125 -1.796875 Z M 2.96875 -1.796875 "/></g></g></g><g fill="#000000" fill-opacity="1"><g transform="translate(158.304119, 217.570751)"><g><path d="M 1.015625 -2.875 L 1.015625 -0.875 C 1.015625 -0.675781 1.050781 -0.539062 1.125 -0.46875 C 1.195312 -0.394531 1.328125 -0.359375 1.515625 -0.359375 L 1.890625 -0.359375 L 1.890625 0 L 1.453125 0 C 1.160156 0 0.941406 -0.0664062 0.796875 -0.203125 C 0.660156 -0.335938 0.59375 -0.5625 0.59375 -0.875 L 0.59375 -2.875 L 0.140625 -2.875 L 0.140625 -3.21875 L 0.59375 -3.21875 L 0.59375 -4.03125 L 1.015625 -4.03125 L 1.015625 -3.21875 L 1.890625 -3.21875 L 1.890625 -2.875 Z M 1.015625 -2.875 "/></g></g></g><g fill="#000000" fill-opacity="1"><g transform="translate(160.405269, 217.570751)"><g><path d="M 0.671875 -3.828125 C 0.597656 -3.828125 0.53125 -3.859375 0.46875 -3.921875 C 0.40625 -3.984375 0.375 -4.054688 0.375 -4.140625 C 0.375 -4.222656 0.40625 -4.289062 0.46875 -4.34375 C 0.53125 -4.40625 0.597656 -4.4375 0.671875 -4.4375 C 0.753906 -4.4375 0.828125 -4.40625 0.890625 -4.34375 C 0.953125 -4.289062 0.984375 -4.222656 0.984375 -4.140625 C 0.984375 -4.054688 0.953125 -3.984375 0.890625 -3.921875 C 0.828125 -3.859375 0.753906 -3.828125 0.671875 -3.828125 Z M 0.890625 -3.21875 L 0.890625 0 L 0.46875 0 L 0.46875 -3.21875 Z M 0.890625 -3.21875 "/></g></g></g><g fill="#000000" fill-opacity="1"><g transform="translate(161.756851, 217.570751)"><g><path d="M 0.28125 -1.609375 C 0.28125 -1.941406 0.347656 -2.234375 0.484375 -2.484375 C 0.617188 -2.734375 0.800781 -2.925781 1.03125 -3.0625 C 1.269531 -3.195312 1.539062 -3.265625 1.84375 -3.265625 C 2.238281 -3.265625 2.566406 -3.164062 2.828125 -2.96875 C 3.085938 -2.78125 3.253906 -2.515625 3.328125 -2.171875 L 2.890625 -2.171875 C 2.835938 -2.398438 2.71875 -2.582031 2.53125 -2.71875 C 2.34375 -2.851562 2.113281 -2.921875 1.84375 -2.921875 C 1.632812 -2.921875 1.441406 -2.867188 1.265625 -2.765625 C 1.085938 -2.671875 0.945312 -2.523438 0.84375 -2.328125 C 0.75 -2.128906 0.703125 -1.890625 0.703125 -1.609375 C 0.703125 -1.328125 0.75 -1.085938 0.84375 -0.890625 C 0.945312 -0.691406 1.085938 -0.539062 1.265625 -0.4375 C 1.441406 -0.34375 1.632812 -0.296875 1.84375 -0.296875 C 2.113281 -0.296875 2.34375 -0.363281 2.53125 -0.5 C 2.71875 -0.632812 2.835938 -0.816406 2.890625 -1.046875 L 3.328125 -1.046875 C 3.253906 -0.722656 3.085938 -0.457031 2.828125 -0.25 C 2.566406 -0.0507812 2.238281 0.046875 1.84375 0.046875 C 1.539062 0.046875 1.269531 -0.0195312 1.03125 -0.15625 C 0.800781 -0.289062 0.617188 -0.484375 0.484375 -0.734375 C 0.347656 -0.984375 0.28125 -1.273438 0.28125 -1.609375 Z M 0.28125 -1.609375 "/></g></g></g><g fill="#000000" fill-opacity="1"><g transform="translate(165.374845, 217.570751)"><g><path d="M 1.578125 0.046875 C 1.210938 0.046875 0.910156 -0.0351562 0.671875 -0.203125 C 0.441406 -0.378906 0.3125 -0.613281 0.28125 -0.90625 L 0.703125 -0.90625 C 0.722656 -0.726562 0.804688 -0.582031 0.953125 -0.46875 C 1.109375 -0.351562 1.316406 -0.296875 1.578125 -0.296875 C 1.796875 -0.296875 1.96875 -0.347656 2.09375 -0.453125 C 2.226562 -0.566406 2.296875 -0.703125 2.296875 -0.859375 C 2.296875 -0.960938 2.257812 -1.050781 2.1875 -1.125 C 2.113281 -1.195312 2.023438 -1.253906 1.921875 -1.296875 C 1.816406 -1.335938 1.671875 -1.378906 1.484375 -1.421875 C 1.242188 -1.492188 1.046875 -1.5625 0.890625 -1.625 C 0.742188 -1.6875 0.617188 -1.773438 0.515625 -1.890625 C 0.410156 -2.015625 0.359375 -2.179688 0.359375 -2.390625 C 0.359375 -2.554688 0.40625 -2.703125 0.5 -2.828125 C 0.59375 -2.960938 0.722656 -3.066406 0.890625 -3.140625 C 1.066406 -3.222656 1.269531 -3.265625 1.5 -3.265625 C 1.84375 -3.265625 2.117188 -3.175781 2.328125 -3 C 2.546875 -2.832031 2.660156 -2.59375 2.671875 -2.28125 L 2.265625 -2.28125 C 2.253906 -2.46875 2.179688 -2.617188 2.046875 -2.734375 C 1.910156 -2.859375 1.722656 -2.921875 1.484375 -2.921875 C 1.273438 -2.921875 1.101562 -2.867188 0.96875 -2.765625 C 0.84375 -2.671875 0.78125 -2.550781 0.78125 -2.40625 C 0.78125 -2.28125 0.816406 -2.175781 0.890625 -2.09375 C 0.972656 -2.007812 1.070312 -1.945312 1.1875 -1.90625 C 1.300781 -1.863281 1.453125 -1.8125 1.640625 -1.75 C 1.867188 -1.6875 2.050781 -1.625 2.1875 -1.5625 C 2.332031 -1.507812 2.453125 -1.425781 2.546875 -1.3125 C 2.648438 -1.195312 2.703125 -1.046875 2.703125 -0.859375 C 2.703125 -0.679688 2.65625 -0.523438 2.5625 -0.390625 C 2.46875 -0.253906 2.332031 -0.144531 2.15625 -0.0625 C 1.988281 0.0078125 1.796875 0.046875 1.578125 0.046875 Z M 1.578125 0.046875 "/></g></g></g><g fill="#000000" fill-opacity="1"><g transform="translate(168.384921, 217.570751)"><g/></g></g><g fill="#000000" fill-opacity="1"><g transform="translate(170.002099, 217.570751)"><g><path d="M 0.28125 -1.609375 C 0.28125 -1.941406 0.347656 -2.234375 0.484375 -2.484375 C 0.617188 -2.734375 0.800781 -2.925781 1.03125 -3.0625 C 1.269531 -3.195312 1.539062 -3.265625 1.84375 -3.265625 C 2.238281 -3.265625 2.566406 -3.164062 2.828125 -2.96875 C 3.085938 -2.78125 3.253906 -2.515625 3.328125 -2.171875 L 2.890625 -2.171875 C 2.835938 -2.398438 2.71875 -2.582031 2.53125 -2.71875 C 2.34375 -2.851562 2.113281 -2.921875 1.84375 -2.921875 C 1.632812 -2.921875 1.441406 -2.867188 1.265625 -2.765625 C 1.085938 -2.671875 0.945312 -2.523438 0.84375 -2.328125 C 0.75 -2.128906 0.703125 -1.890625 0.703125 -1.609375 C 0.703125 -1.328125 0.75 -1.085938 0.84375 -0.890625 C 0.945312 -0.691406 1.085938 -0.539062 1.265625 -0.4375 C 1.441406 -0.34375 1.632812 -0.296875 1.84375 -0.296875 C 2.113281 -0.296875 2.34375 -0.363281 2.53125 -0.5 C 2.71875 -0.632812 2.835938 -0.816406 2.890625 -1.046875 L 3.328125 -1.046875 C 3.253906 -0.722656 3.085938 -0.457031 2.828125 -0.25 C 2.566406 -0.0507812 2.238281 0.046875 1.84375 0.046875 C 1.539062 0.046875 1.269531 -0.0195312 1.03125 -0.15625 C 0.800781 -0.289062 0.617188 -0.484375 0.484375 -0.734375 C 0.347656 -0.984375 0.28125 -1.273438 0.28125 -1.609375 Z M 0.28125 -1.609375 "/></g></g></g><g fill="#000000" fill-opacity="1"><g transform="translate(173.620092, 217.570751)"><g><path d="M 3.390625 -1.78125 C 3.390625 -1.632812 3.382812 -1.523438 3.375 -1.453125 L 0.703125 -1.453125 C 0.710938 -1.210938 0.769531 -1.003906 0.875 -0.828125 C 0.988281 -0.648438 1.128906 -0.515625 1.296875 -0.421875 C 1.472656 -0.335938 1.660156 -0.296875 1.859375 -0.296875 C 2.128906 -0.296875 2.351562 -0.359375 2.53125 -0.484375 C 2.71875 -0.617188 2.84375 -0.796875 2.90625 -1.015625 L 3.34375 -1.015625 C 3.257812 -0.703125 3.085938 -0.445312 2.828125 -0.25 C 2.578125 -0.0507812 2.253906 0.046875 1.859375 0.046875 C 1.554688 0.046875 1.285156 -0.0195312 1.046875 -0.15625 C 0.804688 -0.289062 0.617188 -0.484375 0.484375 -0.734375 C 0.347656 -0.984375 0.28125 -1.273438 0.28125 -1.609375 C 0.28125 -1.941406 0.347656 -2.234375 0.484375 -2.484375 C 0.617188 -2.742188 0.804688 -2.9375 1.046875 -3.0625 C 1.285156 -3.195312 1.554688 -3.265625 1.859375 -3.265625 C 2.171875 -3.265625 2.441406 -3.195312 2.671875 -3.0625 C 2.898438 -2.9375 3.078125 -2.757812 3.203125 -2.53125 C 3.328125 -2.300781 3.390625 -2.050781 3.390625 -1.78125 Z M 2.96875 -1.796875 C 2.976562 -2.035156 2.929688 -2.238281 2.828125 -2.40625 C 2.722656 -2.570312 2.582031 -2.695312 2.40625 -2.78125 C 2.238281 -2.875 2.050781 -2.921875 1.84375 -2.921875 C 1.539062 -2.921875 1.28125 -2.820312 1.0625 -2.625 C 0.84375 -2.425781 0.722656 -2.148438 0.703125 -1.796875 Z M 2.96875 -1.796875 "/></g></g></g><g fill="#000000" fill-opacity="1"><g transform="translate(177.291208, 217.570751)"><g><path d="M 1.984375 -3.28125 C 2.367188 -3.28125 2.679688 -3.160156 2.921875 -2.921875 C 3.171875 -2.679688 3.296875 -2.335938 3.296875 -1.890625 L 3.296875 0 L 2.890625 0 L 2.890625 -1.84375 C 2.890625 -2.195312 2.800781 -2.460938 2.625 -2.640625 C 2.445312 -2.828125 2.207031 -2.921875 1.90625 -2.921875 C 1.59375 -2.921875 1.34375 -2.820312 1.15625 -2.625 C 0.976562 -2.425781 0.890625 -2.140625 0.890625 -1.765625 L 0.890625 0 L 0.46875 0 L 0.46875 -3.21875 L 0.890625 -3.21875 L 0.890625 -2.671875 C 0.992188 -2.867188 1.140625 -3.019531 1.328125 -3.125 C 1.523438 -3.226562 1.742188 -3.28125 1.984375 -3.28125 Z M 1.984375 -3.28125 "/></g></g></g><g fill="#000000" fill-opacity="1"><g transform="translate(181.027244, 217.570751)"><g><path d="M 1.015625 -2.875 L 1.015625 -0.875 C 1.015625 -0.675781 1.050781 -0.539062 1.125 -0.46875 C 1.195312 -0.394531 1.328125 -0.359375 1.515625 -0.359375 L 1.890625 -0.359375 L 1.890625 0 L 1.453125 0 C 1.160156 0 0.941406 -0.0664062 0.796875 -0.203125 C 0.660156 -0.335938 0.59375 -0.5625 0.59375 -0.875 L 0.59375 -2.875 L 0.140625 -2.875 L 0.140625 -3.21875 L 0.59375 -3.21875 L 0.59375 -4.03125 L 1.015625 -4.03125 L 1.015625 -3.21875 L 1.890625 -3.21875 L 1.890625 -2.875 Z M 1.015625 -2.875 "/></g></g></g><g fill="#000000" fill-opacity="1"><g transform="translate(183.1284, 217.570751)"><g><path d="M 3.390625 -1.78125 C 3.390625 -1.632812 3.382812 -1.523438 3.375 -1.453125 L 0.703125 -1.453125 C 0.710938 -1.210938 0.769531 -1.003906 0.875 -0.828125 C 0.988281 -0.648438 1.128906 -0.515625 1.296875 -0.421875 C 1.472656 -0.335938 1.660156 -0.296875 1.859375 -0.296875 C 2.128906 -0.296875 2.351562 -0.359375 2.53125 -0.484375 C 2.71875 -0.617188 2.84375 -0.796875 2.90625 -1.015625 L 3.34375 -1.015625 C 3.257812 -0.703125 3.085938 -0.445312 2.828125 -0.25 C 2.578125 -0.0507812 2.253906 0.046875 1.859375 0.046875 C 1.554688 0.046875 1.285156 -0.0195312 1.046875 -0.15625 C 0.804688 -0.289062 0.617188 -0.484375 0.484375 -0.734375 C 0.347656 -0.984375 0.28125 -1.273438 0.28125 -1.609375 C 0.28125 -1.941406 0.347656 -2.234375 0.484375 -2.484375 C 0.617188 -2.742188 0.804688 -2.9375 1.046875 -3.0625 C 1.285156 -3.195312 1.554688 -3.265625 1.859375 -3.265625 C 2.171875 -3.265625 2.441406 -3.195312 2.671875 -3.0625 C 2.898438 -2.9375 3.078125 -2.757812 3.203125 -2.53125 C 3.328125 -2.300781 3.390625 -2.050781 3.390625 -1.78125 Z M 2.96875 -1.796875 C 2.976562 -2.035156 2.929688 -2.238281 2.828125 -2.40625 C 2.722656 -2.570312 2.582031 -2.695312 2.40625 -2.78125 C 2.238281 -2.875 2.050781 -2.921875 1.84375 -2.921875 C 1.539062 -2.921875 1.28125 -2.820312 1.0625 -2.625 C 0.84375 -2.425781 0.722656 -2.148438 0.703125 -1.796875 Z M 2.96875 -1.796875 "/></g></g></g><g fill="#000000" fill-opacity="1"><g transform="translate(186.799515, 217.570751)"><g><path d="M 0.890625 -2.65625 C 0.972656 -2.851562 1.109375 -3.003906 1.296875 -3.109375 C 1.484375 -3.222656 1.710938 -3.28125 1.984375 -3.28125 L 1.984375 -2.859375 L 1.875 -2.859375 C 1.570312 -2.859375 1.332031 -2.773438 1.15625 -2.609375 C 0.976562 -2.453125 0.890625 -2.179688 0.890625 -1.796875 L 0.890625 0 L 0.46875 0 L 0.46875 -3.21875 L 0.890625 -3.21875 Z M 0.890625 -2.65625 "/></g></g></g><g fill="#000000" fill-opacity="1"><g transform="translate(132.414737, 191.554222)"><g><path d="M -3.625 -4.1875 C -3.765625 -4.328125 -3.921875 -4.453125 -3.984375 -4.484375 L -4.046875 -4.421875 C -4.015625 -4.390625 -3.96875 -4.359375 -3.9375 -4.328125 C -3.734375 -4.09375 -3.875 -3.578125 -4.359375 -2.578125 C -4.890625 -1.546875 -5.359375 -0.921875 -4.625 0.171875 C -5.546875 -0.671875 -6.5625 -0.734375 -7.265625 -0.109375 C -7.96875 0.515625 -7.890625 1.4375 -6.6875 2.796875 L -5.484375 4.15625 L -5.390625 4.078125 C -5.53125 3.8125 -5.46875 3.625 -4.796875 3.03125 L -1.546875 0.140625 C -0.859375 -0.453125 -0.671875 -0.5 -0.4375 -0.3125 L -0.359375 -0.390625 L -1.25 -1.40625 L -1.328125 -1.328125 C -1.1875 -1.078125 -1.234375 -0.875 -1.921875 -0.28125 L -3.65625 1.25 L -4.109375 0.75 C -5.109375 -0.390625 -4.5 -1.0625 -3.921875 -2.3125 C -3.515625 -3.1875 -3.15625 -3.65625 -3.625 -4.1875 Z M -3.75 1.34375 L -6 3.34375 C -6.109375 3.21875 -6.234375 3.09375 -6.34375 2.984375 C -7.46875 1.703125 -7.421875 0.84375 -6.703125 0.1875 C -6.015625 -0.421875 -5.1875 -0.28125 -4.4375 0.578125 Z M -3.75 1.34375 "/></g></g></g><g fill="#000000" fill-opacity="1"><g transform="translate(128.735852, 187.449858)"><g><path d="M -0.28125 -0.453125 L -2.796875 -4.40625 L -3.828125 -3.859375 L -3.796875 -3.765625 C -2.921875 -3.953125 -2.453125 -3.640625 -1.984375 -2.890625 L -1.109375 -1.515625 C -0.96875 -1.296875 -1.015625 -1.109375 -1.234375 -0.96875 L -3.828125 0.65625 L -4.671875 -0.6875 C -5.21875 -1.546875 -5.15625 -1.84375 -4.875 -2.09375 L -4.9375 -2.1875 L -6.03125 -1.5 L -5.96875 -1.40625 C -5.640625 -1.53125 -5.3125 -1.46875 -4.765625 -0.609375 L -3.921875 0.734375 L -6.46875 2.34375 L -7.40625 0.859375 C -7.875 0.109375 -7.90625 -0.5 -7.421875 -1.15625 L -7.515625 -1.21875 L -8.421875 -0.515625 L -6.0625 3.203125 L -5.96875 3.140625 C -6.078125 2.875 -6 2.6875 -5.234375 2.21875 L -1.5625 -0.109375 C -0.796875 -0.59375 -0.578125 -0.59375 -0.375 -0.390625 Z M -0.28125 -0.453125 "/></g></g></g><g fill="#000000" fill-opacity="1"><g transform="translate(125.840147, 183.062318)"><g><path d="M -1.40625 -3.734375 C -1.84375 -4.828125 -2.84375 -5.578125 -3.546875 -5.703125 L -5.28125 -4.984375 L -4.890625 -4.03125 L -4.796875 -4.078125 C -4.890625 -4.515625 -4.71875 -4.640625 -4.328125 -4.796875 L -3.296875 -5.25 C -2.75 -5.21875 -1.984375 -4.71875 -1.671875 -3.9375 C -0.890625 -2.015625 -2.21875 -0.171875 -3.921875 0.5 C -5.640625 1.171875 -7.078125 0.5 -7.65625 -0.921875 C -8.140625 -2.140625 -7.78125 -3.125 -7.265625 -3.671875 L -7.328125 -3.75 L -8.21875 -3.328125 C -8.265625 -3.03125 -8.328125 -2.109375 -7.890625 -1.046875 C -7.15625 0.78125 -5.15625 1.5625 -3.25 0.78125 C -1.328125 0.015625 -0.609375 -1.765625 -1.40625 -3.734375 Z M -1.40625 -3.734375 "/></g></g></g><g fill="#000000" fill-opacity="1"><g transform="translate(123.419048, 176.731281)"><g><path d="M -0.125 -0.515625 L -0.46875 -1.8125 L -0.578125 -1.78125 C -0.5625 -1.5 -0.703125 -1.359375 -1.578125 -1.125 L -5.8125 -0.03125 C -6.671875 0.1875 -6.84375 0.125 -6.984375 -0.125 L -7.09375 -0.109375 L -6.75 1.1875 L -6.640625 1.171875 C -6.65625 0.890625 -6.53125 0.734375 -5.671875 0.515625 L -1.4375 -0.578125 C -0.5625 -0.8125 -0.375 -0.734375 -0.234375 -0.484375 Z M -0.125 -0.515625 "/></g></g></g><g fill="#000000" fill-opacity="1"><g transform="translate(122.761529, 174.72719)"><g><path d="M 0.015625 0.125 L -0.125 -0.9375 L -0.234375 -0.921875 C -0.25 -0.59375 -0.609375 -0.546875 -1.25 -0.703125 L -2.78125 -1.09375 L -3.171875 -3.984375 L -1.78125 -4.765625 C -1.015625 -5.21875 -0.875 -5.265625 -0.765625 -4.984375 L -0.65625 -5 L -0.828125 -6.234375 L -0.9375 -6.21875 C -0.96875 -6.015625 -1.078125 -5.78125 -1.859375 -5.328125 L -7.28125 -2.21875 L -6.984375 -1.765625 L -6.875 -1.828125 C -6.734375 -1.90625 -6.640625 -1.9375 -6.5 -1.890625 L -1.234375 -0.546875 C -0.359375 -0.3125 -0.1875 -0.109375 -0.09375 0.140625 Z M -2.921875 -1.125 L -6.515625 -2.046875 L -3.28125 -3.90625 Z M -2.921875 -1.125 "/></g></g></g><g fill="#000000" fill-opacity="1"><g transform="translate(121.94292, 168.997858)"><g><path d="M 0.359375 -5.71875 L 0.359375 -5.84375 L -5.328125 -6.109375 C -6.21875 -6.15625 -6.390625 -6.265625 -6.4375 -6.5625 L -6.53125 -6.5625 L -6.578125 -5.4375 L -6.484375 -5.4375 C -6.390625 -5.78125 -6.1875 -6 -5.15625 -5.953125 L -0.625 -5.734375 L -6.765625 -1.578125 L -6.8125 -0.765625 L -6.71875 -0.765625 C -6.640625 -1.109375 -6.453125 -1.265625 -5.5625 -1.21875 L -1.203125 -1.015625 C -0.296875 -0.96875 -0.125 -0.84375 -0.078125 -0.5625 L 0.03125 -0.5625 L 0.078125 -1.6875 L -0.03125 -1.6875 C -0.125 -1.34375 -0.359375 -1.109375 -1.375 -1.15625 L -6.09375 -1.390625 Z M 0.359375 -5.71875 "/></g></g></g><g fill="#000000" fill-opacity="1"><g transform="translate(122.244288, 162.771471)"><g><path d="M 0.109375 -0.515625 L 1.140625 -5.09375 L 0.03125 -5.4375 L -0.015625 -5.359375 C 0.734375 -4.859375 0.828125 -4.296875 0.640625 -3.453125 L 0.28125 -1.859375 C 0.234375 -1.609375 0.0625 -1.515625 -0.171875 -1.5625 L -3.15625 -2.234375 L -2.8125 -3.78125 C -2.59375 -4.78125 -2.34375 -4.9375 -1.96875 -4.9375 L -1.9375 -5.046875 L -3.203125 -5.328125 L -3.234375 -5.21875 C -2.90625 -5.0625 -2.71875 -4.8125 -2.9375 -3.8125 L -3.28125 -2.265625 L -6.234375 -2.921875 L -5.859375 -4.625 C -5.65625 -5.5 -5.25 -5.953125 -4.4375 -6.0625 L -4.4375 -6.171875 L -5.59375 -6.3125 L -6.5625 -2.015625 L -6.46875 -1.984375 C -6.34375 -2.25 -6.140625 -2.328125 -5.265625 -2.125 L -1.015625 -1.171875 C -0.125 -0.984375 0 -0.828125 0 -0.546875 Z M 0.109375 -0.515625 "/></g></g></g><g fill="#000000" fill-opacity="1"><g transform="translate(123.928818, 155.719274)"><g><path d="M 1.890625 -3.609375 C 2.328125 -4.484375 2.546875 -5.640625 2.5 -6.140625 L 1.546875 -6.78125 L 1.484375 -6.703125 C 2.296875 -5.84375 2.3125 -4.828125 1.859375 -3.921875 C 0.890625 -1.96875 -1.21875 -1.78125 -2.796875 -2.5625 C -4.609375 -3.484375 -4.953125 -5.125 -4.265625 -6.515625 C -3.6875 -7.703125 -2.8125 -8.203125 -1.9375 -8.1875 L -1.9375 -8.265625 L -2.875 -8.671875 C -3.09375 -8.515625 -3.84375 -7.828125 -4.265625 -6.96875 C -5.25 -5 -4.6875 -2.859375 -2.703125 -1.890625 C -0.859375 -0.96875 0.9375 -1.671875 1.890625 -3.609375 Z M 1.890625 -3.609375 "/></g></g></g><g fill="#000000" fill-opacity="1"><g transform="translate(126.887853, 149.731454)"><g><path d="M -0.078125 0.09375 L 0.578125 -0.765625 L 0.484375 -0.828125 C 0.21875 -0.59375 -0.0625 -0.796875 -0.40625 -1.390625 L -1.203125 -2.734375 L 0.546875 -5.0625 L 2.078125 -4.65625 C 2.953125 -4.421875 3.0625 -4.359375 2.9375 -4.09375 L 3.03125 -4.03125 L 3.78125 -5.015625 L 3.6875 -5.078125 C 3.515625 -4.96875 3.28125 -4.875 2.421875 -5.109375 L -3.625 -6.6875 L -3.765625 -6.15625 L -3.609375 -6.125 C -3.46875 -6.09375 -3.359375 -6.046875 -3.296875 -5.90625 L -0.5 -1.265625 C -0.03125 -0.46875 -0.0625 -0.203125 -0.171875 0.03125 Z M -1.296875 -2.859375 L -3.203125 -6.03125 L 0.390625 -5.09375 Z M -1.296875 -2.859375 "/></g></g></g><g fill="#000000" fill-opacity="1"><g transform="translate(130.368784, 145.080336)"><g><path d="M 4.078125 -3.75 C 4.21875 -3.890625 4.34375 -4.0625 4.375 -4.109375 L 4.3125 -4.171875 C 4.265625 -4.140625 4.234375 -4.09375 4.203125 -4.0625 C 3.984375 -3.859375 3.46875 -3.96875 2.453125 -4.4375 C 1.390625 -4.9375 0.765625 -5.375 -0.3125 -4.625 C 0.515625 -5.578125 0.546875 -6.578125 -0.09375 -7.265625 C -0.75 -7.953125 -1.65625 -7.828125 -2.984375 -6.59375 L -4.296875 -5.34375 L -4.21875 -5.265625 C -3.984375 -5.421875 -3.78125 -5.359375 -3.171875 -4.703125 L -0.1875 -1.53125 C 0.4375 -0.875 0.46875 -0.6875 0.3125 -0.4375 L 0.390625 -0.359375 L 1.359375 -1.28125 L 1.28125 -1.359375 C 1.03125 -1.21875 0.84375 -1.265625 0.21875 -1.921875 L -1.359375 -3.609375 L -0.875 -4.078125 C 0.234375 -5.109375 0.921875 -4.53125 2.203125 -3.984375 C 3.078125 -3.609375 3.5625 -3.265625 4.078125 -3.75 Z M -1.453125 -3.71875 L -3.515625 -5.890625 C -3.390625 -6.015625 -3.296875 -6.140625 -3.171875 -6.234375 C -1.9375 -7.40625 -1.0625 -7.40625 -0.40625 -6.703125 C 0.234375 -6.03125 0.125 -5.203125 -0.703125 -4.421875 Z M -1.453125 -3.71875 "/></g></g></g><g fill="#000000" fill-opacity="1"><g transform="translate(134.339522, 141.281805)"><g><path d="M -2.578125 -5.109375 L 2.515625 -1.5625 L 2.65625 -1.671875 L 1.296875 -7.703125 C 1.109375 -8.59375 1.21875 -8.828125 1.390625 -9.03125 L 1.328125 -9.109375 L 0.4375 -8.515625 L 0.5 -8.4375 C 0.828125 -8.5625 1.03125 -8.28125 1.1875 -7.625 L 2.375 -2.28125 L -2.109375 -5.421875 C -2.859375 -5.953125 -2.9375 -6.0625 -2.75 -6.265625 L -2.8125 -6.34375 L -3.828125 -5.65625 L -3.765625 -5.578125 C -3.578125 -5.640625 -3.328125 -5.640625 -2.578125 -5.109375 Z M -2.578125 -5.109375 "/></g></g></g><g fill="#000000" fill-opacity="1"><g transform="translate(139.0156, 138.109192)"><g><path d="M -0.109375 0.046875 L 0.875 -0.390625 L 0.828125 -0.484375 C 0.5 -0.40625 0.34375 -0.734375 0.3125 -1.40625 L 0.265625 -2.984375 L 2.921875 -4.15625 L 4.078125 -3.0625 C 4.734375 -2.4375 4.8125 -2.3125 4.5625 -2.140625 L 4.609375 -2.046875 L 5.75 -2.546875 L 5.703125 -2.640625 C 5.5 -2.609375 5.25 -2.65625 4.59375 -3.28125 L 0.09375 -7.609375 L -0.296875 -7.203125 L -0.171875 -7.109375 C -0.0625 -7.015625 0 -6.90625 0 -6.765625 L 0.171875 -1.34375 C 0.203125 -0.421875 0.046875 -0.203125 -0.15625 -0.046875 Z M 0.265625 -3.125 L 0.140625 -6.828125 L 2.8125 -4.25 Z M 0.265625 -3.125 "/></g></g></g><g fill="#000000" fill-opacity="1"><g transform="translate(144.350202, 135.757254)"><g><path d="M 0.515625 -0.140625 L 4.8125 -1.265625 L 4.609375 -2.21875 L 4.53125 -2.203125 C 4.390625 -1.515625 4.140625 -1.21875 3.296875 -1 L 1.78125 -0.59375 C 1.53125 -0.53125 1.375 -0.625 1.3125 -0.875 L 0.015625 -5.796875 C -0.203125 -6.65625 -0.140625 -6.859375 0.109375 -6.984375 L 0.078125 -7.09375 L -1.21875 -6.765625 L -1.1875 -6.65625 C -0.90625 -6.65625 -0.75 -6.515625 -0.53125 -5.65625 L 0.578125 -1.4375 C 0.796875 -0.5625 0.734375 -0.375 0.484375 -0.25 Z M 0.515625 -0.140625 "/></g></g></g><g fill="#000000" fill-opacity="1"><g transform="translate(148.989852, 134.42391)"><g><path d="M 0.53125 -0.046875 L 1.875 -0.15625 L 1.859375 -0.265625 C 1.578125 -0.3125 1.453125 -0.46875 1.375 -1.375 L 1.1875 -3.671875 L 5.234375 -4.015625 L 5.421875 -1.71875 C 5.5 -0.8125 5.390625 -0.640625 5.125 -0.546875 L 5.140625 -0.4375 L 6.453125 -0.546875 L 6.4375 -0.65625 C 6.1875 -0.703125 6.046875 -0.859375 5.96875 -1.765625 L 5.59375 -6.109375 C 5.53125 -6.984375 5.640625 -7.171875 5.875 -7.25 L 5.875 -7.359375 L 4.5625 -7.25 L 4.5625 -7.140625 C 4.84375 -7.109375 4.984375 -6.9375 5.046875 -6.0625 L 5.21875 -4.15625 L 1.171875 -3.8125 L 1 -5.71875 C 0.9375 -6.59375 1.03125 -6.78125 1.296875 -6.859375 L 1.296875 -6.96875 L -0.046875 -6.859375 L -0.046875 -6.75 C 0.25 -6.703125 0.375 -6.546875 0.4375 -5.671875 L 0.8125 -1.328125 C 0.890625 -0.421875 0.796875 -0.234375 0.515625 -0.15625 Z M 0.53125 -0.046875 "/></g></g></g><g fill="#000000" fill-opacity="1"><g transform="translate(155.471024, 133.772877)"><g><path d="M 3.890625 0.578125 C 5.515625 0.78125 7.4375 -0.03125 7.734375 -2.453125 C 8.03125 -4.84375 6.390625 -6.1875 4.75 -6.390625 C 2.703125 -6.640625 1.15625 -5.375 0.90625 -3.3125 C 0.609375 -0.953125 2.25 0.375 3.890625 0.578125 Z M 1.5 -3.78125 C 1.6875 -5.390625 2.8125 -6.4375 4.453125 -6.234375 C 6.265625 -6.015625 7.40625 -4.015625 7.171875 -2.046875 C 6.96875 -0.375 5.8125 0.625 4.1875 0.421875 C 2.359375 0.1875 1.25 -1.828125 1.5 -3.78125 Z M 1.5 -3.78125 "/></g></g></g><g fill="#000000" fill-opacity="1"><g transform="translate(138.258643, 212.373737)"><g><path d="M 43.6875 0.546875 C 45.390625 0.546875 46.9375 0.234375 47.484375 0 L 47.484375 -0.765625 C 47.015625 -0.703125 46.625 -0.625 46.171875 -0.625 C 43.6875 -0.625 41.453125 -4.015625 38.203125 -12.21875 C 34.796875 -20.875 33.5625 -26.828125 23.203125 -28.296875 C 33.09375 -29.3125 38.734375 -34.953125 38.734375 -42.375 C 38.734375 -49.875 32.859375 -54.125 18.484375 -54.125 L 4.25 -54.125 L 4.25 -53.28125 C 6.421875 -52.734375 7.34375 -51.421875 7.34375 -44.3125 L 7.34375 -9.828125 C 7.34375 -2.703125 6.421875 -1.390625 4.25 -0.84375 L 4.25 0 L 14.765625 0 L 14.765625 -0.84375 C 12.609375 -1.390625 11.671875 -2.703125 11.671875 -9.828125 L 11.671875 -28.140625 L 17.015625 -28.140625 C 29 -28.140625 29.921875 -20.953125 34.25 -10.984375 C 37.265625 -4.015625 38.125 0.546875 43.6875 0.546875 Z M 11.671875 -29.234375 L 11.671875 -52.96875 C 13.0625 -53.046875 14.3125 -53.125 15.546875 -53.125 C 29 -53.125 33.953125 -48.25 33.953125 -40.671875 C 33.953125 -33.40625 28.84375 -29.234375 19.875 -29.234375 Z M 11.671875 -29.234375 "/></g></g></g></svg>