<svg width="233" height="39" viewBox="0 0 233 39" fill="none" xmlns="http://www.w3.org/2000/svg">
<path d="M26.312 4.01602C26.184 5.42402 26.088 6.78402 26.024 8.09602C25.992 9.40802 25.976 10.416 25.976 11.12C25.976 11.76 25.992 12.368 26.024 12.944C26.056 13.52 26.088 14 26.12 14.384H25.016C24.696 12.048 24.2 10.208 23.528 8.86402C22.856 7.48802 21.976 6.52802 20.888 5.98402C19.832 5.40802 18.584 5.12002 17.144 5.12002H15.176C14.248 5.12002 13.544 5.20002 13.064 5.36002C12.584 5.52002 12.264 5.84002 12.104 6.32002C11.944 6.80002 11.864 7.53602 11.864 8.52802V33.488C11.864 34.48 11.944 35.216 12.104 35.696C12.264 36.176 12.584 36.496 13.064 36.656C13.544 36.816 14.248 36.896 15.176 36.896H17.528C18.968 36.896 20.232 36.592 21.32 35.984C22.44 35.344 23.384 34.272 24.152 32.768C24.952 31.264 25.56 29.232 25.976 26.672H27.08C26.984 27.696 26.936 29.04 26.936 30.704C26.936 31.44 26.952 32.48 26.984 33.824C27.016 35.168 27.112 36.56 27.272 38C25.64 37.936 23.8 37.904 21.752 37.904C19.704 37.872 17.88 37.856 16.28 37.856C15.48 37.856 14.456 37.856 13.208 37.856C11.96 37.856 10.616 37.872 9.17596 37.904C7.73596 37.904 6.27996 37.92 4.80796 37.952C3.33596 37.952 1.94396 37.968 0.631958 38V37.04C1.65596 36.976 2.42396 36.848 2.93596 36.656C3.44796 36.464 3.78396 36.08 3.94396 35.504C4.13596 34.928 4.23196 34.064 4.23196 32.912V9.10402C4.23196 7.92002 4.13596 7.05602 3.94396 6.51202C3.78396 5.93602 3.43196 5.55202 2.88796 5.36002C2.37596 5.13602 1.62396 5.00802 0.631958 4.97602V4.01602C1.94396 4.04802 3.33596 4.08002 4.80796 4.11202C6.27996 4.11202 7.73596 4.12802 9.17596 4.16002C10.616 4.16002 11.96 4.16002 13.208 4.16002C14.456 4.16002 15.48 4.16002 16.28 4.16002C17.752 4.16002 19.416 4.16002 21.272 4.16002C23.16 4.12802 24.84 4.08002 26.312 4.01602ZM18.824 20.432C18.824 20.432 18.824 20.592 18.824 20.912C18.824 21.232 18.824 21.392 18.824 21.392H10.424C10.424 21.392 10.424 21.232 10.424 20.912C10.424 20.592 10.424 20.432 10.424 20.432H18.824ZM20.216 14.096C20.088 15.92 20.024 17.312 20.024 18.272C20.056 19.232 20.072 20.112 20.072 20.912C20.072 21.712 20.088 22.592 20.12 23.552C20.152 24.512 20.232 25.904 20.36 27.728H19.256C19.096 26.608 18.792 25.568 18.344 24.608C17.928 23.648 17.32 22.88 16.52 22.304C15.72 21.696 14.68 21.392 13.4 21.392V20.432C14.36 20.432 15.176 20.24 15.848 19.856C16.52 19.44 17.064 18.912 17.48 18.272C17.928 17.6 18.28 16.896 18.536 16.16C18.792 15.424 18.984 14.736 19.112 14.096H20.216Z" fill="#141414"/>
<path d="M53.4766 13.184V14.144C52.8686 14.304 52.2926 14.688 51.7486 15.296C51.2046 15.872 50.6766 16.864 50.1646 18.272L43.1566 38.096C42.6446 38.064 42.1166 38.048 41.5726 38.048C41.0606 38.048 40.5486 38.064 40.0366 38.096L31.4926 16.88C30.9806 15.632 30.4686 14.88 29.9566 14.624C29.4766 14.336 29.0606 14.192 28.7086 14.192V13.184C29.7326 13.248 30.7886 13.312 31.8766 13.376C32.9966 13.408 34.2126 13.424 35.5246 13.424C36.5166 13.424 37.5566 13.408 38.6446 13.376C39.7646 13.312 40.8046 13.248 41.7646 13.184V14.192C41.0926 14.192 40.4846 14.224 39.9406 14.288C39.4286 14.352 39.0766 14.56 38.8846 14.912C38.6926 15.264 38.7246 15.888 38.9806 16.784L44.5966 31.664L44.1166 32.336L47.9086 21.824C48.5166 20.096 48.7726 18.688 48.6766 17.6C48.5806 16.48 48.2286 15.648 47.6206 15.104C47.0126 14.528 46.1966 14.208 45.1726 14.144V13.184C45.6526 13.216 46.1646 13.248 46.7086 13.28C47.2846 13.28 47.8286 13.296 48.3406 13.328C48.8846 13.328 49.3646 13.328 49.7806 13.328C50.4206 13.328 51.0926 13.312 51.7966 13.28C52.5006 13.248 53.0606 13.216 53.4766 13.184Z" fill="#141414"/>
<path d="M60.7291 38.336C59.2891 38.336 58.0891 38.064 57.1291 37.52C56.1691 36.976 55.4651 36.256 55.0171 35.36C54.5691 34.432 54.3451 33.424 54.3451 32.336C54.3451 30.96 54.6491 29.84 55.2571 28.976C55.8971 28.112 56.7131 27.408 57.7051 26.864C58.6971 26.32 59.7371 25.872 60.8251 25.52C61.9451 25.168 63.0011 24.832 63.9931 24.512C65.0171 24.16 65.8331 23.76 66.4411 23.312C67.0811 22.832 67.4011 22.224 67.4011 21.488V17.744C67.4011 16.912 67.2571 16.176 66.9691 15.536C66.7131 14.864 66.2971 14.352 65.7211 14C65.1771 13.648 64.4571 13.472 63.5611 13.472C62.9211 13.472 62.2811 13.568 61.6411 13.76C61.0011 13.92 60.4731 14.208 60.0571 14.624C60.9531 14.944 61.6411 15.44 62.1211 16.112C62.6331 16.752 62.8891 17.488 62.8891 18.32C62.8891 19.408 62.5051 20.272 61.7371 20.912C61.0011 21.552 60.1211 21.872 59.0971 21.872C57.9451 21.872 57.0651 21.52 56.4571 20.816C55.8811 20.08 55.5931 19.2 55.5931 18.176C55.5931 17.248 55.8171 16.48 56.2651 15.872C56.7451 15.264 57.4011 14.688 58.2331 14.144C59.1291 13.632 60.2011 13.232 61.4491 12.944C62.7291 12.656 64.1051 12.512 65.5771 12.512C67.0491 12.512 68.3771 12.672 69.5611 12.992C70.7451 13.28 71.7371 13.824 72.5371 14.624C73.2731 15.36 73.7531 16.272 73.9771 17.36C74.2011 18.416 74.3131 19.76 74.3131 21.392V34.448C74.3131 35.248 74.3931 35.808 74.5531 36.128C74.7131 36.416 74.9851 36.56 75.3691 36.56C75.6571 36.56 75.9291 36.48 76.1851 36.32C76.4731 36.16 76.7771 35.968 77.0971 35.744L77.5771 36.56C76.9051 37.136 76.1211 37.584 75.2251 37.904C74.3611 38.192 73.3851 38.336 72.2971 38.336C71.1131 38.336 70.1691 38.176 69.4651 37.856C68.7611 37.504 68.2491 37.04 67.9291 36.464C67.6411 35.888 67.4971 35.216 67.4971 34.448C66.7291 35.664 65.8011 36.624 64.7131 37.328C63.6251 38 62.2971 38.336 60.7291 38.336ZM64.1371 35.264C64.7771 35.264 65.3531 35.12 65.8651 34.832C66.4091 34.512 66.9211 34 67.4011 33.296V23.456C67.1131 23.936 66.7131 24.368 66.2011 24.752C65.6891 25.136 65.1451 25.536 64.5691 25.952C63.9931 26.336 63.4331 26.768 62.8891 27.248C62.3771 27.728 61.9611 28.32 61.6411 29.024C61.3211 29.728 61.1611 30.576 61.1611 31.568C61.1611 32.816 61.4331 33.744 61.9771 34.352C62.5211 34.96 63.2411 35.264 64.1371 35.264Z" fill="#141414"/>
<path d="M88.7408 0.416016V33.536C88.7408 34.88 88.9648 35.792 89.4128 36.272C89.8928 36.752 90.6928 36.992 91.8128 36.992V38C91.2048 37.968 90.2928 37.936 89.0768 37.904C87.8608 37.84 86.6288 37.808 85.3808 37.808C84.1328 37.808 82.8688 37.84 81.5888 37.904C80.3408 37.936 79.3968 37.968 78.7568 38V36.992C79.8768 36.992 80.6608 36.752 81.1088 36.272C81.5888 35.792 81.8288 34.88 81.8288 33.536V6.17602C81.8288 4.73602 81.6048 3.68002 81.1568 3.00802C80.7408 2.30402 79.9408 1.95202 78.7568 1.95202V0.944017C79.7808 1.04002 80.7728 1.08802 81.7328 1.08802C83.0448 1.08802 84.2928 1.04002 85.4768 0.944017C86.6608 0.816017 87.7488 0.640017 88.7408 0.416016Z" fill="#141414"/>
<path d="M117.002 0.416016V32.72C117.002 34.16 117.226 35.232 117.674 35.936C118.122 36.608 118.922 36.944 120.074 36.944V37.952C119.082 37.856 118.09 37.808 117.098 37.808C115.754 37.808 114.49 37.856 113.306 37.952C112.154 38.048 111.082 38.224 110.09 38.48V6.17602C110.09 4.73602 109.866 3.68002 109.418 3.00802C109.002 2.30402 108.202 1.95202 107.018 1.95202V0.944017C108.042 1.04002 109.034 1.08802 109.994 1.08802C111.306 1.08802 112.554 1.04002 113.738 0.944017C114.922 0.816017 116.01 0.640017 117.002 0.416016ZM104.762 12.512C106.17 12.512 107.402 12.752 108.458 13.232C109.546 13.68 110.394 14.448 111.002 15.536L110.426 16.064C110.01 15.296 109.45 14.752 108.746 14.432C108.074 14.08 107.354 13.904 106.586 13.904C104.954 13.904 103.658 14.864 102.698 16.784C101.738 18.672 101.274 21.6 101.306 25.568C101.306 28.288 101.482 30.464 101.834 32.096C102.218 33.696 102.746 34.848 103.418 35.552C104.122 36.256 104.922 36.608 105.818 36.608C106.906 36.608 107.882 36.176 108.746 35.312C109.61 34.448 110.074 33.28 110.138 31.808L110.378 33.488C109.898 35.184 109.114 36.48 108.026 37.376C106.97 38.24 105.578 38.672 103.85 38.672C101.962 38.672 100.266 38.208 98.7623 37.28C97.2903 36.352 96.1383 34.928 95.3063 33.008C94.4743 31.056 94.0583 28.544 94.0583 25.472C94.0583 22.56 94.5223 20.16 95.4503 18.272C96.3783 16.352 97.6423 14.912 99.2423 13.952C100.874 12.992 102.714 12.512 104.762 12.512Z" fill="#141414"/>
<path d="M134.458 12.512C136.794 12.512 138.842 12.944 140.602 13.808C142.362 14.672 143.738 16.064 144.73 17.984C145.722 19.904 146.218 22.448 146.218 25.616C146.218 28.784 145.722 31.328 144.73 33.248C143.738 35.136 142.362 36.512 140.602 37.376C138.842 38.24 136.794 38.672 134.458 38.672C132.186 38.672 130.154 38.24 128.362 37.376C126.602 36.512 125.21 35.136 124.186 33.248C123.194 31.328 122.698 28.784 122.698 25.616C122.698 22.448 123.194 19.904 124.186 17.984C125.21 16.064 126.602 14.672 128.362 13.808C130.154 12.944 132.186 12.512 134.458 12.512ZM134.458 13.472C133.178 13.472 132.106 14.432 131.242 16.352C130.378 18.24 129.946 21.328 129.946 25.616C129.946 29.904 130.378 32.992 131.242 34.88C132.106 36.768 133.178 37.712 134.458 37.712C135.77 37.712 136.842 36.768 137.674 34.88C138.538 32.992 138.97 29.904 138.97 25.616C138.97 21.328 138.538 18.24 137.674 16.352C136.842 14.432 135.77 13.472 134.458 13.472Z" fill="#141414"/>
<path d="M163.636 4.01602C169.94 4.01602 174.628 5.45602 177.7 8.33602C180.772 11.184 182.308 15.28 182.308 20.624C182.308 24.112 181.556 27.168 180.052 29.792C178.548 32.384 176.356 34.4 173.476 35.84C170.628 37.28 167.204 38 163.204 38C162.692 38 162.02 37.984 161.188 37.952C160.356 37.92 159.492 37.904 158.596 37.904C157.7 37.872 156.9 37.856 156.196 37.856C154.788 37.856 153.396 37.872 152.02 37.904C150.676 37.904 149.604 37.936 148.804 38V37.04C149.828 36.976 150.596 36.848 151.108 36.656C151.62 36.464 151.956 36.08 152.116 35.504C152.308 34.928 152.404 34.064 152.404 32.912V9.10402C152.404 7.92002 152.308 7.05602 152.116 6.51202C151.956 5.93602 151.604 5.55202 151.06 5.36002C150.548 5.13602 149.796 5.00802 148.804 4.97602V4.01602C149.604 4.04802 150.676 4.09602 152.02 4.16002C153.396 4.19202 154.756 4.19202 156.1 4.16002C157.252 4.12802 158.548 4.09602 159.988 4.06402C161.46 4.03202 162.676 4.01602 163.636 4.01602ZM163.588 4.88002C162.116 4.88002 161.156 5.15202 160.708 5.69602C160.26 6.24002 160.036 7.34402 160.036 9.00802V33.008C160.036 34.672 160.26 35.776 160.708 36.32C161.188 36.864 162.164 37.136 163.636 37.136C166.324 37.136 168.436 36.512 169.972 35.264C171.54 33.984 172.66 32.128 173.332 29.696C174.004 27.264 174.34 24.304 174.34 20.816C174.34 17.232 173.972 14.272 173.236 11.936C172.532 9.56802 171.396 7.80802 169.828 6.65602C168.26 5.47202 166.18 4.88002 163.588 4.88002Z" fill="#141414"/>
<path d="M197.973 12.512C200.789 12.512 202.997 13.344 204.597 15.008C206.197 16.672 206.997 19.392 206.997 23.168H191.205L191.109 22.256H200.949C200.981 20.688 200.885 19.248 200.661 17.936C200.437 16.592 200.085 15.52 199.605 14.72C199.125 13.92 198.485 13.52 197.685 13.52C196.565 13.52 195.605 14.224 194.805 15.632C194.037 17.04 193.573 19.376 193.413 22.64L193.557 22.928C193.525 23.312 193.493 23.712 193.461 24.128C193.461 24.544 193.461 24.976 193.461 25.424C193.461 27.632 193.765 29.424 194.373 30.8C195.013 32.176 195.813 33.184 196.773 33.824C197.733 34.432 198.709 34.736 199.701 34.736C200.373 34.736 201.061 34.64 201.765 34.448C202.501 34.224 203.237 33.84 203.973 33.296C204.709 32.72 205.397 31.92 206.037 30.896L206.901 31.184C206.517 32.4 205.909 33.584 205.077 34.736C204.245 35.888 203.189 36.832 201.909 37.568C200.629 38.304 199.093 38.672 197.301 38.672C195.125 38.672 193.205 38.208 191.541 37.28C189.877 36.352 188.565 34.944 187.605 33.056C186.677 31.168 186.213 28.768 186.213 25.856C186.213 22.88 186.709 20.4 187.701 18.416C188.725 16.432 190.117 14.96 191.877 14C193.669 13.008 195.701 12.512 197.973 12.512Z" fill="#141414"/>
<path d="M232.492 13.184V14.144C231.884 14.304 231.308 14.688 230.764 15.296C230.22 15.872 229.692 16.864 229.18 18.272L222.172 38.096C221.66 38.064 221.132 38.048 220.588 38.048C220.076 38.048 219.564 38.064 219.052 38.096L210.508 16.88C209.996 15.632 209.484 14.88 208.972 14.624C208.492 14.336 208.076 14.192 207.724 14.192V13.184C208.748 13.248 209.804 13.312 210.892 13.376C212.012 13.408 213.228 13.424 214.54 13.424C215.532 13.424 216.572 13.408 217.66 13.376C218.78 13.312 219.82 13.248 220.78 13.184V14.192C220.108 14.192 219.5 14.224 218.956 14.288C218.444 14.352 218.092 14.56 217.9 14.912C217.708 15.264 217.74 15.888 217.996 16.784L223.612 31.664L223.132 32.336L226.924 21.824C227.532 20.096 227.788 18.688 227.692 17.6C227.596 16.48 227.244 15.648 226.636 15.104C226.028 14.528 225.212 14.208 224.188 14.144V13.184C224.668 13.216 225.18 13.248 225.724 13.28C226.3 13.28 226.844 13.296 227.356 13.328C227.9 13.328 228.38 13.328 228.796 13.328C229.436 13.328 230.108 13.312 230.812 13.28C231.516 13.248 232.076 13.216 232.492 13.184Z" fill="#141414"/>
</svg>
