<svg width="137" height="140" viewBox="0 0 137 140" fill="none" xmlns="http://www.w3.org/2000/svg">
<path d="M77.8039 109.261C92.22 108.565 105.437 102.929 115.03 93.1914C115.19 93.0235 115.163 92.9036 115.003 92.6397C114.817 92.4958 114.497 92.5198 114.391 92.6637C104.931 102.258 91.8736 107.87 77.7506 108.565C55.3403 109.669 35.7812 89.138 34.209 62.755C32.6102 36.396 49.6111 14.0664 72.0214 12.9631C86.1445 12.2676 99.7879 16.6088 110.314 25.0993C110.473 25.2432 110.793 25.2192 110.926 25.0753C111.086 24.9074 111.06 24.6436 110.9 24.5237C100.188 15.8892 86.3843 11.572 71.9682 12.2676C57.552 12.9631 44.3083 18.6235 34.6087 28.2413C14.7033 48.1724 16.5419 78.9925 38.7391 96.909C49.5578 105.663 63.3877 109.957 77.8039 109.261Z" fill="white"/>
<path d="M2.3716 140C1.90528 140 1.49891 139.928 1.14583 139.784C0.806078 139.64 0.532944 139.442 0.319767 139.185C0.119913 138.915 0.0133245 138.621 0 138.297H0.746122C0.779431 138.603 0.932653 138.873 1.19913 139.113C1.4656 139.34 1.85198 139.448 2.3716 139.448C2.85125 139.448 3.23098 139.346 3.51743 139.137C3.79723 138.915 3.94379 138.633 3.94379 138.297C3.94379 138.027 3.86385 137.811 3.70396 137.65C3.54408 137.476 3.34423 137.35 3.11773 137.266C2.88456 137.188 2.57146 137.098 2.18507 137.002C1.70542 136.876 1.31904 136.762 1.03924 136.666C0.772769 136.558 0.539606 136.39 0.346414 136.162C0.146559 135.923 0.0532944 135.605 0.0532944 135.203C0.0532944 134.885 0.146559 134.597 0.346414 134.34C0.539606 134.088 0.806078 133.884 1.14583 133.74C1.47892 133.596 1.87197 133.524 2.31831 133.524C2.97116 133.524 3.49745 133.668 3.89049 133.956C4.29686 134.244 4.53003 134.615 4.58332 135.059H3.81055C3.77058 134.807 3.62402 134.573 3.35755 134.364C3.09108 134.16 2.72468 134.052 2.26501 134.052C1.83866 134.052 1.47892 134.16 1.19913 134.364C0.912667 134.573 0.772769 134.855 0.772769 135.203C0.772769 135.461 0.852711 135.677 1.01259 135.851C1.17248 136.013 1.36567 136.132 1.59883 136.21C1.82534 136.294 2.13844 136.378 2.53149 136.474C2.99115 136.606 3.36421 136.726 3.65067 136.834C3.93046 136.948 4.16363 137.116 4.3435 137.338C4.53669 137.566 4.63662 137.865 4.63662 138.249C4.63662 138.555 4.54335 138.843 4.37014 139.113C4.21026 139.37 3.95045 139.586 3.59738 139.76C3.25762 139.922 2.85125 140 2.3716 140Z" fill="white"/>
<path d="M5.67773 137.434C5.67773 136.942 5.78432 136.498 5.9975 136.115C6.224 135.731 6.53711 135.437 6.93015 135.227C7.33652 135.023 7.79619 134.915 8.31581 134.915C8.82877 134.915 9.27511 135.029 9.64817 135.251C10.0346 135.461 10.3144 135.731 10.4742 136.067V134.987H11.1937V139.928H10.4742V138.825C10.3144 139.161 10.0346 139.442 9.64817 139.664C9.27511 139.892 8.82211 140 8.28916 140C7.78953 140 7.33652 139.898 6.93015 139.688C6.53711 139.484 6.224 139.185 5.9975 138.801C5.78432 138.405 5.67773 137.949 5.67773 137.434ZM10.4742 137.458C10.4742 137.062 10.381 136.708 10.2078 136.402C10.0279 136.103 9.78141 135.869 9.46164 135.707C9.1552 135.551 8.82211 135.467 8.44905 135.467C8.056 135.467 7.70292 135.551 7.38316 135.707C7.07671 135.851 6.83689 136.079 6.66368 136.378C6.48381 136.684 6.39721 137.038 6.39721 137.434C6.39721 137.853 6.48381 138.213 6.66368 138.513C6.83689 138.819 7.07671 139.053 7.38316 139.209C7.70292 139.37 8.056 139.448 8.44905 139.448C8.82211 139.448 9.1552 139.37 9.46164 139.209C9.78141 139.053 10.0279 138.819 10.2078 138.513C10.381 138.213 10.4742 137.859 10.4742 137.458Z" fill="white"/>
<path d="M13.511 133.212V139.928H12.7915V133.212H13.511Z" fill="white"/>
<path d="M17.5215 140C16.9886 140 16.5156 139.898 16.1092 139.688C15.6962 139.484 15.3698 139.185 15.1233 138.801C14.8901 138.417 14.7769 137.973 14.7769 137.458C14.7769 136.948 14.8901 136.498 15.1233 136.115C15.3698 135.731 15.6962 135.437 16.1092 135.227C16.5356 135.023 17.0019 134.915 17.5215 134.915C18.0345 134.915 18.5075 135.023 18.9338 135.227C19.3602 135.437 19.6866 135.731 19.9198 136.115C20.1663 136.498 20.2928 136.948 20.2928 137.458C20.2928 137.973 20.1663 138.417 19.9198 138.801C19.6666 139.185 19.3335 139.484 18.9072 139.688C18.4941 139.898 18.0345 140 17.5215 140ZM17.5215 139.448C17.8746 139.448 18.201 139.376 18.5075 139.232C18.8272 139.077 19.0737 138.849 19.2536 138.561C19.4468 138.261 19.5467 137.889 19.5467 137.458C19.5467 137.026 19.4468 136.66 19.2536 136.354C19.0737 136.055 18.8272 135.827 18.5075 135.683C18.201 135.539 17.8746 135.467 17.5215 135.467C17.1618 135.467 16.8287 135.539 16.5089 135.683C16.2025 135.827 15.956 136.055 15.7628 136.354C15.5829 136.66 15.4963 137.026 15.4963 137.458C15.4963 137.889 15.5829 138.261 15.7628 138.561C15.956 138.849 16.2025 139.077 16.5089 139.232C16.8087 139.376 17.1485 139.448 17.5215 139.448Z" fill="white"/>
<path d="M24.1439 134.891C24.7967 134.891 25.3297 135.077 25.7427 135.443C26.1691 135.815 26.3822 136.342 26.3822 137.026V139.928H25.6894V137.098C25.6894 136.558 25.5362 136.15 25.2364 135.875C24.93 135.587 24.5236 135.443 24.0106 135.443C23.4777 135.443 23.0513 135.599 22.7316 135.899C22.4251 136.204 22.2786 136.642 22.2786 137.218V139.928H21.5591V134.987H22.2786V135.827C22.4518 135.527 22.7049 135.293 23.0247 135.131C23.3578 134.975 23.7308 134.891 24.1439 134.891Z" fill="white"/>
<path d="M30.3682 137.434C30.3682 136.942 30.4748 136.498 30.6879 136.115C30.9144 135.731 31.2275 135.437 31.6206 135.227C32.027 135.023 32.4866 134.915 33.0062 134.915C33.5192 134.915 33.9655 135.029 34.3386 135.251C34.725 135.461 35.0048 135.731 35.1647 136.067V134.987H35.8841V139.928H35.1647V138.825C35.0048 139.161 34.725 139.442 34.3386 139.664C33.9655 139.892 33.5125 140 32.9796 140C32.48 140 32.027 139.898 31.6206 139.688C31.2275 139.484 30.9144 139.185 30.6879 138.801C30.4748 138.405 30.3682 137.949 30.3682 137.434ZM35.1647 137.458C35.1647 137.062 35.0714 136.708 34.8982 136.402C34.7183 136.103 34.4718 135.869 34.1521 135.707C33.8456 135.551 33.5125 135.467 33.1395 135.467C32.7464 135.467 32.3934 135.551 32.0736 135.707C31.7671 135.851 31.5273 136.079 31.3541 136.378C31.1742 136.684 31.0876 137.038 31.0876 137.434C31.0876 137.853 31.1742 138.213 31.3541 138.513C31.5273 138.819 31.7671 139.053 32.0736 139.209C32.3934 139.37 32.7464 139.448 33.1395 139.448C33.5125 139.448 33.8456 139.37 34.1521 139.209C34.4718 139.053 34.7183 138.819 34.8982 138.513C35.0714 138.213 35.1647 137.859 35.1647 137.458Z" fill="white"/>
<path d="M40.0672 134.891C40.7201 134.891 41.253 135.077 41.666 135.443C42.0924 135.815 42.3056 136.342 42.3056 137.026V139.928H41.6127V137.098C41.6127 136.558 41.4595 136.15 41.1597 135.875C40.8533 135.587 40.4469 135.443 39.934 135.443C39.401 135.443 38.9747 135.599 38.6549 135.899C38.3485 136.204 38.2019 136.642 38.2019 137.218V139.928H37.4824V134.987H38.2019V135.827C38.3751 135.527 38.6283 135.293 38.948 135.131C39.2811 134.975 39.6542 134.891 40.0672 134.891Z" fill="white"/>
<path d="M43.5342 137.434C43.5342 136.942 43.6474 136.498 43.8806 136.115C44.1071 135.731 44.4202 135.437 44.8132 135.227C45.2196 135.023 45.6726 134.915 46.1723 134.915C46.6519 134.915 47.0849 135.023 47.478 135.227C47.8644 135.437 48.1508 135.707 48.3307 136.043V133.212H49.0502V139.928H48.3307V138.825C48.1708 139.161 47.891 139.442 47.5046 139.664C47.1316 139.892 46.6852 140 46.1723 140C45.6526 140 45.193 139.898 44.7866 139.688C44.3936 139.484 44.0804 139.185 43.8539 138.801C43.6408 138.405 43.5342 137.949 43.5342 137.434ZM48.3307 137.458C48.3307 137.062 48.2374 136.708 48.0642 136.402C47.8843 136.103 47.6379 135.869 47.3181 135.707C47.0116 135.551 46.6786 135.467 46.3055 135.467C45.9124 135.467 45.5594 135.551 45.2396 135.707C44.9332 135.851 44.6933 136.079 44.5201 136.378C44.3403 136.684 44.2537 137.038 44.2537 137.434C44.2537 137.853 44.3403 138.213 44.5201 138.513C44.6933 138.819 44.9332 139.053 45.2396 139.209C45.5594 139.37 45.9124 139.448 46.3055 139.448C46.6786 139.448 47.0116 139.37 47.3181 139.209C47.6379 139.053 47.8843 138.819 48.0642 138.513C48.2374 138.213 48.3307 137.859 48.3307 137.458Z" fill="white"/>
<path d="M54.1257 134.1V136.474H56.7904V137.002H54.1257V139.4H57.0836V139.928H53.4062V133.572H57.0836V134.1H54.1257Z" fill="white"/>
<path d="M60.3616 140C59.7354 140 59.2225 139.874 58.8161 139.616C58.423 139.346 58.2032 138.987 58.1499 138.537H58.8694C58.9027 138.813 59.0426 139.035 59.2957 139.209C59.5622 139.388 59.9153 139.472 60.3616 139.472C60.7347 139.472 61.0278 139.394 61.241 139.232C61.4675 139.059 61.5874 138.849 61.5874 138.609C61.5874 138.453 61.5208 138.315 61.4009 138.201C61.2743 138.093 61.1211 138.003 60.9479 137.937C60.768 137.877 60.5215 137.811 60.2017 137.745C59.7887 137.638 59.4556 137.53 59.1891 137.434C58.936 137.338 58.7228 137.206 58.5496 137.026C58.3697 136.834 58.2831 136.582 58.2831 136.258C58.2831 136.007 58.3631 135.779 58.523 135.587C58.6828 135.383 58.9027 135.221 59.1891 135.107C59.4889 134.981 59.8353 134.915 60.2284 134.915C60.8146 134.915 61.281 135.053 61.6407 135.323C62.0137 135.581 62.2069 135.947 62.2269 136.426H61.5341C61.5141 136.138 61.3875 135.911 61.161 135.731C60.9279 135.539 60.6081 135.443 60.2017 135.443C59.842 135.443 59.5489 135.527 59.3224 135.683C59.1092 135.827 59.0026 136.013 59.0026 136.234C59.0026 136.426 59.0626 136.588 59.1891 136.714C59.329 136.846 59.4956 136.942 59.6954 137.002C59.8886 137.068 60.1484 137.146 60.4682 137.242C60.8546 137.338 61.1677 137.434 61.4009 137.53C61.6473 137.614 61.8539 137.739 62.0137 137.913C62.187 138.093 62.2802 138.321 62.2802 138.609C62.2802 138.885 62.2003 139.125 62.0404 139.328C61.8805 139.538 61.6473 139.706 61.3476 139.832C61.0611 139.94 60.7347 140 60.3616 140Z" fill="white"/>
<path d="M64.5352 135.515V138.585C64.5352 138.891 64.5952 139.101 64.7217 139.208C64.8417 139.322 65.0682 139.376 65.3879 139.376H66.0275V139.928H65.2813C64.7817 139.928 64.4086 139.826 64.1622 139.616C63.929 139.412 63.8157 139.065 63.8157 138.585V135.515H63.043V134.987H63.8157V133.74H64.5352V134.987H66.0275V135.515H64.5352Z" fill="white"/>
<path d="M69.8241 134.891C70.2305 134.891 70.5969 134.975 70.9166 135.131C71.2497 135.275 71.5162 135.515 71.7161 135.851C71.9093 136.174 72.0092 136.564 72.0092 137.026V139.928H71.3164V137.098C71.3164 136.558 71.1631 136.151 70.8634 135.875C70.5569 135.587 70.1505 135.443 69.6376 135.443C69.1046 135.443 68.6783 135.599 68.3585 135.899C68.0521 136.204 67.9055 136.642 67.9055 137.218V139.928H67.186V133.212H67.9055V135.827C68.0787 135.527 68.3385 135.293 68.6783 135.131C69.0114 134.975 69.3978 134.891 69.8241 134.891Z" fill="white"/>
<path d="M78.5406 137.194C78.5406 137.422 78.5273 137.59 78.5139 137.697H73.9573C73.9706 138.069 74.0705 138.387 74.2504 138.657C74.4436 138.933 74.6834 139.137 74.9699 139.28C75.2696 139.412 75.5894 139.472 75.9292 139.472C76.3888 139.472 76.7685 139.376 77.075 139.185C77.3948 138.981 77.6079 138.705 77.7145 138.369H78.4606C78.3141 138.849 78.021 139.244 77.5813 139.544C77.1549 139.85 76.602 140 75.9292 140C75.4095 140 74.9499 139.898 74.5435 139.688C74.1305 139.484 73.8107 139.185 73.5842 138.801C73.351 138.417 73.2378 137.973 73.2378 137.458C73.2378 136.948 73.351 136.498 73.5842 136.115C73.8107 135.719 74.1305 135.419 74.5435 135.227C74.9499 135.023 75.4095 134.915 75.9292 134.915C76.4621 134.915 76.9218 135.023 77.3148 135.227C77.7012 135.419 78.0076 135.695 78.2208 136.043C78.434 136.396 78.5406 136.78 78.5406 137.194ZM77.8211 137.17C77.8344 136.804 77.7545 136.492 77.5813 136.234C77.4014 135.983 77.1616 135.791 76.8618 135.659C76.5754 135.515 76.2556 135.443 75.9025 135.443C75.3829 135.443 74.9432 135.599 74.5702 135.899C74.1971 136.204 73.9906 136.63 73.9573 137.17H77.8211Z" fill="white"/>
<path d="M80.751 135.515V138.585C80.751 138.891 80.811 139.101 80.9376 139.208C81.0575 139.322 81.284 139.376 81.6037 139.376H82.2433V139.928H81.4972C80.9975 139.928 80.6245 139.826 80.378 139.616C80.1448 139.412 80.0316 139.065 80.0316 138.585V135.515H79.2588V134.987H80.0316V133.74H80.751V134.987H82.2433V135.515H80.751Z" fill="white"/>
<path d="M83.748 134.052C83.6214 134.052 83.5082 134.004 83.4016 133.908C83.295 133.812 83.2417 133.704 83.2417 133.572C83.2417 133.446 83.295 133.344 83.4016 133.26C83.5082 133.164 83.6214 133.116 83.748 133.116C83.8879 133.116 84.0145 133.164 84.1211 133.26C84.2276 133.344 84.2809 133.446 84.2809 133.572C84.2809 133.704 84.2276 133.812 84.1211 133.908C84.0145 134.004 83.8879 134.052 83.748 134.052ZM84.1211 134.987V139.928H83.4016V134.987H84.1211Z" fill="white"/>
<path d="M85.3877 137.458C85.3877 136.948 85.5009 136.498 85.7341 136.115C85.9606 135.731 86.2737 135.437 86.6668 135.227C87.0731 135.023 87.5328 134.915 88.0524 134.915C88.7253 134.915 89.2849 135.071 89.7312 135.371C90.1709 135.659 90.4573 136.067 90.5839 136.594H89.8378C89.7445 136.246 89.5447 135.965 89.2249 135.755C88.9051 135.551 88.5121 135.443 88.0524 135.443C87.6927 135.443 87.3663 135.527 87.0665 135.683C86.76 135.827 86.5202 136.055 86.347 136.354C86.1871 136.66 86.1072 137.026 86.1072 137.458C86.1072 137.889 86.1871 138.261 86.347 138.561C86.5202 138.867 86.76 139.101 87.0665 139.256C87.3663 139.4 87.6927 139.472 88.0524 139.472C88.5121 139.472 88.9051 139.37 89.2249 139.161C89.5447 138.957 89.7445 138.675 89.8378 138.321H90.5839C90.4573 138.819 90.1709 139.227 89.7312 139.544C89.2849 139.85 88.7253 140 88.0524 140C87.5328 140 87.0731 139.898 86.6668 139.688C86.2737 139.484 85.9606 139.185 85.7341 138.801C85.5009 138.417 85.3877 137.973 85.3877 137.458Z" fill="white"/>
<path d="M93.7688 140C93.1426 140 92.6297 139.874 92.2233 139.616C91.8303 139.346 91.6104 138.987 91.5571 138.537H92.2766C92.3099 138.813 92.4498 139.035 92.703 139.209C92.9694 139.388 93.3225 139.472 93.7688 139.472C94.1419 139.472 94.435 139.394 94.6482 139.232C94.8747 139.059 94.9946 138.849 94.9946 138.609C94.9946 138.453 94.928 138.315 94.8081 138.201C94.6815 138.093 94.5283 138.003 94.3551 137.937C94.1752 137.877 93.9287 137.811 93.609 137.745C93.1959 137.638 92.8628 137.53 92.5964 137.434C92.3432 137.338 92.13 137.206 91.9568 137.026C91.777 136.834 91.6904 136.582 91.6904 136.258C91.6904 136.007 91.7703 135.779 91.9302 135.587C92.0901 135.383 92.3099 135.221 92.5964 135.107C92.8962 134.981 93.2426 134.915 93.6356 134.915C94.2219 134.915 94.6882 135.053 95.0479 135.323C95.421 135.581 95.6142 135.947 95.6342 136.426H94.9413C94.9213 136.138 94.7948 135.911 94.5683 135.731C94.3351 135.539 94.0153 135.443 93.609 135.443C93.2492 135.443 92.9561 135.527 92.7296 135.683C92.5164 135.827 92.4098 136.013 92.4098 136.234C92.4098 136.426 92.4698 136.588 92.5964 136.714C92.7363 136.846 92.9028 136.942 93.1027 137.002C93.2959 137.068 93.5557 137.146 93.8754 137.242C94.2618 137.338 94.5749 137.434 94.8081 137.53C95.0546 137.614 95.2611 137.739 95.421 137.913C95.5942 138.093 95.6874 138.321 95.6874 138.609C95.6874 138.885 95.6075 139.125 95.4476 139.328C95.2877 139.538 95.0546 139.706 94.7548 139.832C94.4683 139.94 94.1419 140 93.7688 140Z" fill="white"/>
<path d="M99.4487 137.458C99.4487 136.948 99.562 136.498 99.7951 136.115C100.022 135.731 100.335 135.437 100.728 135.227C101.134 135.023 101.594 134.915 102.113 134.915C102.786 134.915 103.346 135.071 103.792 135.371C104.232 135.659 104.518 136.067 104.645 136.594H103.899C103.806 136.246 103.606 135.965 103.286 135.755C102.966 135.551 102.573 135.443 102.113 135.443C101.754 135.443 101.427 135.527 101.128 135.683C100.821 135.827 100.581 136.055 100.408 136.354C100.248 136.66 100.168 137.026 100.168 137.458C100.168 137.889 100.248 138.261 100.408 138.561C100.581 138.867 100.821 139.101 101.128 139.256C101.427 139.4 101.754 139.472 102.113 139.472C102.573 139.472 102.966 139.37 103.286 139.161C103.606 138.957 103.806 138.675 103.899 138.321H104.645C104.518 138.819 104.232 139.227 103.792 139.544C103.346 139.85 102.786 140 102.113 140C101.594 140 101.134 139.898 100.728 139.688C100.335 139.484 100.022 139.185 99.7951 138.801C99.562 138.417 99.4487 137.973 99.4487 137.458Z" fill="white"/>
<path d="M110.921 137.194C110.921 137.422 110.908 137.59 110.895 137.697H106.338C106.351 138.069 106.451 138.387 106.631 138.657C106.824 138.933 107.064 139.137 107.351 139.28C107.651 139.412 107.97 139.472 108.31 139.472C108.77 139.472 109.149 139.376 109.456 139.185C109.776 138.981 109.989 138.705 110.095 138.369H110.842C110.695 138.849 110.402 139.244 109.962 139.544C109.536 139.85 108.983 140 108.31 140C107.79 140 107.331 139.898 106.924 139.688C106.511 139.484 106.192 139.185 105.965 138.801C105.732 138.417 105.619 137.973 105.619 137.458C105.619 136.948 105.732 136.498 105.965 136.115C106.192 135.719 106.511 135.419 106.924 135.227C107.331 135.023 107.79 134.915 108.31 134.915C108.843 134.915 109.303 135.023 109.696 135.227C110.082 135.419 110.389 135.695 110.602 136.043C110.815 136.396 110.921 136.78 110.921 137.194ZM110.202 137.17C110.215 136.804 110.135 136.492 109.962 136.234C109.782 135.983 109.542 135.791 109.243 135.659C108.956 135.515 108.636 135.443 108.283 135.443C107.764 135.443 107.324 135.599 106.951 135.899C106.578 136.204 106.371 136.63 106.338 137.17H110.202Z" fill="white"/>
<path d="M114.784 134.891C115.437 134.891 115.97 135.077 116.383 135.443C116.809 135.815 117.022 136.342 117.022 137.026V139.928H116.33V137.098C116.33 136.558 116.176 136.15 115.877 135.875C115.57 135.587 115.164 135.443 114.651 135.443C114.118 135.443 113.691 135.599 113.372 135.899C113.065 136.204 112.919 136.642 112.919 137.218V139.928H112.199V134.987H112.919V135.827C113.092 135.527 113.345 135.293 113.665 135.131C113.998 134.975 114.371 134.891 114.784 134.891Z" fill="white"/>
<path d="M119.504 135.515V138.585C119.504 138.891 119.564 139.101 119.69 139.208C119.81 139.322 120.037 139.376 120.357 139.376H120.996V139.928H120.25C119.75 139.928 119.377 139.826 119.131 139.616C118.898 139.412 118.784 139.065 118.784 138.585V135.515H118.012V134.987H118.784V133.74H119.504V134.987H120.996V135.515H119.504Z" fill="white"/>
<path d="M127.137 137.194C127.137 137.422 127.124 137.59 127.111 137.697H122.554C122.567 138.069 122.667 138.387 122.847 138.657C123.04 138.933 123.28 139.137 123.567 139.28C123.866 139.412 124.186 139.472 124.526 139.472C124.986 139.472 125.365 139.376 125.672 139.185C125.991 138.981 126.205 138.705 126.311 138.369H127.057C126.911 138.849 126.618 139.244 126.178 139.544C125.752 139.85 125.199 140 124.526 140C124.006 140 123.547 139.898 123.14 139.688C122.727 139.484 122.407 139.185 122.181 138.801C121.948 138.417 121.834 137.973 121.834 137.458C121.834 136.948 121.948 136.498 122.181 136.115C122.407 135.719 122.727 135.419 123.14 135.227C123.547 135.023 124.006 134.915 124.526 134.915C125.059 134.915 125.518 135.023 125.911 135.227C126.298 135.419 126.604 135.695 126.818 136.043C127.031 136.396 127.137 136.78 127.137 137.194ZM126.418 137.17C126.431 136.804 126.351 136.492 126.178 136.234C125.998 135.983 125.758 135.791 125.458 135.659C125.172 135.515 124.852 135.443 124.499 135.443C123.98 135.443 123.54 135.599 123.167 135.899C122.794 136.204 122.587 136.63 122.554 137.17H126.418Z" fill="white"/>
<path d="M129.135 135.851C129.274 135.551 129.508 135.317 129.827 135.155C130.147 134.981 130.533 134.891 131 134.891V135.539H130.813C130.294 135.539 129.887 135.671 129.588 135.923C129.281 136.162 129.135 136.582 129.135 137.17V139.928H128.415V134.987H129.135V135.851Z" fill="white"/>
<path d="M28.6843 93.5645C28.4445 93.3486 28.178 93.1567 28.0714 93.1088L27.9649 93.2047C28.0182 93.2527 28.0981 93.3006 28.1514 93.3486C28.4978 93.7084 28.258 94.4999 27.4319 96.0349C26.5259 97.6179 25.7265 98.5772 26.9789 100.256C25.4067 98.961 23.6747 98.8651 22.4755 99.8244C21.2764 100.784 21.4096 102.199 23.4615 104.286L25.5133 106.372L25.6732 106.252C25.4334 105.845 25.54 105.557 26.6858 104.645L32.2284 100.208C33.4009 99.2968 33.7207 99.2248 34.1204 99.5126L34.2536 99.3927L32.7347 97.8337L32.6015 97.9536C32.8413 98.3374 32.7614 98.6492 31.5889 99.5606L28.631 101.911L27.8583 101.144C26.1528 99.3927 27.1921 98.3614 28.178 96.4426C28.8709 95.0995 29.4838 94.3799 28.6843 93.5645ZM28.4712 102.055L24.634 105.125C24.4474 104.933 24.2342 104.741 24.0477 104.573C22.1291 102.607 22.2091 101.287 23.4348 100.28C24.6073 99.3447 26.0196 99.5606 27.2987 100.88L28.4712 102.055Z" fill="white"/>
<path d="M28.1127 92.9966L23.8225 86.9285L22.0638 87.7679L22.1171 87.9118C23.6093 87.624 24.4087 88.1037 25.2081 89.255L26.7004 91.3656C26.9402 91.7014 26.8603 91.9892 26.4872 92.2051L22.0638 94.6995L20.6248 92.6368C19.6922 91.3176 19.7988 90.8619 20.2784 90.4782L20.1718 90.3343L18.3065 91.3896L18.4131 91.5335C18.9727 91.3416 19.5323 91.4376 20.4649 92.7567L21.9039 94.8194L17.5604 97.2898L15.9616 95.0113C15.1621 93.86 15.1089 92.9246 15.9349 91.9172L15.775 91.8213L14.2295 92.9006L18.2532 98.6089L18.4131 98.513C18.2266 98.1053 18.3598 97.8174 19.6655 97.0979L25.9276 93.5242C27.2333 92.7807 27.6064 92.7807 27.9528 93.0925L28.1127 92.9966Z" fill="white"/>
<path d="M21.256 81.2249C20.5099 79.546 18.8044 78.3948 17.6053 78.2029L14.6475 79.3062L15.3137 80.7692L15.4735 80.6973C15.3137 80.0257 15.6068 79.8338 16.273 79.594L18.0317 78.8984C18.9643 78.9464 20.27 79.7139 20.803 80.9131C22.1353 83.8632 19.8703 86.6934 16.9658 87.7247C14.0346 88.7561 11.583 87.7247 10.5971 85.5421C9.77103 83.6714 10.3839 82.1603 11.2633 81.3209L11.1567 81.2009L9.6378 81.8485C9.55786 82.3042 9.45127 83.7193 10.1974 85.3503C11.4498 88.1565 14.8607 89.3557 18.1116 88.1565C21.3892 86.9812 22.615 84.247 21.256 81.2249Z" fill="white"/>
<path d="M19.3119 76.4475L18.7257 74.4568L18.5391 74.5048C18.5658 74.9365 18.326 75.1523 16.8337 75.5121L9.61232 77.191C8.14672 77.5268 7.8536 77.4309 7.61378 77.0471L7.42725 77.0711L8.01349 79.0618L8.20002 79.0378C8.17337 78.6061 8.38655 78.3663 9.85214 78.0305L17.0735 76.3516C18.5658 75.9918 18.8856 76.1117 19.1254 76.4955L19.3119 76.4475Z" fill="white"/>
<path d="M18.4306 74.3545L18.1908 72.7235L18.0042 72.7475C17.9776 73.2512 17.3647 73.3231 16.2722 73.0833L13.6607 72.4837L12.9945 68.0465L15.3662 66.8473C16.6719 66.1518 16.9117 66.0798 17.0982 66.5115L17.2848 66.4876L16.9916 64.5928L16.8051 64.6168C16.7518 64.9286 16.5653 65.2883 15.2329 65.9839L5.98633 70.7568L6.49263 71.4523L6.67916 71.3564C6.91898 71.2365 7.07886 71.1885 7.31869 71.2605L16.2988 73.3231C17.791 73.6829 18.0842 73.9947 18.2441 74.3785L18.4306 74.3545ZM13.4209 72.4357L7.29204 71.0206L12.808 68.1665L13.4209 72.4357Z" fill="white"/>
<path d="M17.6207 56.5897V56.3978L7.92113 55.9901C6.40224 55.9182 6.10912 55.7503 6.02918 55.2946H5.8693L5.78936 57.0214H5.94924C6.10912 56.4938 6.45554 56.158 8.21425 56.23L15.9419 56.5657L5.46959 62.9456L5.38965 64.1928H5.54953C5.68277 63.6652 6.00253 63.4253 7.52143 63.4973L14.956 63.8091C16.5015 63.881 16.7947 64.0729 16.8746 64.5046H17.0611L17.1411 62.7777H16.9545C16.7947 63.3054 16.395 63.6652 14.6629 63.5932L6.61542 63.2334L17.6207 56.5897Z" fill="white"/>
<path d="M17.7084 55.019L19.4672 47.9915L17.5752 47.4639L17.4953 47.5838C18.7743 48.3513 18.9342 49.2147 18.6144 50.5099L18.0016 52.9563C17.9216 53.3401 17.6285 53.484 17.2288 53.412L12.1392 52.3807L12.7254 50.0062C13.0985 48.4712 13.5248 48.2314 14.1644 48.2314L14.2177 48.0635L12.0592 47.6318L12.0059 47.7996C12.5655 48.0395 12.8853 48.4232 12.5122 49.9583L11.926 52.3327L6.88967 51.3254L7.5292 48.7111C7.87562 47.3679 8.56845 46.6724 9.9541 46.5045V46.3366L7.98221 46.1207L6.33008 52.7165L6.48996 52.7644C6.70314 52.3567 7.04955 52.2368 8.5418 52.5486L15.7898 54.0116C17.3087 54.2995 17.5219 54.5393 17.5219 54.971L17.7084 55.019Z" fill="white"/>
<path d="M23.6188 39.4449C24.3649 38.1018 24.738 36.3269 24.658 35.5594L23.0325 34.5761L22.9259 34.696C24.3116 36.0151 24.3382 37.5741 23.5655 38.9652C21.9133 41.9633 18.316 42.2511 15.6246 41.0519C12.5335 39.6368 11.9473 37.1184 13.1198 34.9838C14.1057 33.161 15.598 32.3935 17.0902 32.4175V32.2975L15.4914 31.674C15.1183 31.9138 13.8392 32.9691 13.1198 34.2883C11.441 37.3103 12.4003 40.5962 15.7845 42.0832C18.9289 43.4983 21.9933 42.419 23.6188 39.4449Z" fill="white"/>
<path d="M25.3073 35.9377L26.4265 34.6186L26.2666 34.5226C25.8136 34.8824 25.3339 34.5706 24.7477 33.6592L23.3887 31.5965L26.3732 28.0228L28.9846 28.6464C30.4769 29.0062 30.6634 29.1021 30.4502 29.5099L30.6101 29.6058L31.8892 28.0948L31.7293 27.9988C31.4362 28.1667 31.0365 28.3106 29.5709 27.9509L19.2584 25.5284L19.0186 26.3439L19.285 26.3919C19.5249 26.4399 19.7114 26.5118 19.818 26.7277L24.5878 33.8511C25.3872 35.0743 25.3339 35.482 25.1474 35.8418L25.3073 35.9377ZM23.2288 31.4047L19.9779 26.5358L26.1067 27.9749L23.2288 31.4047Z" fill="white"/>
<path d="M38.3322 22.8981C38.5721 22.6823 38.7852 22.4184 38.8385 22.3465L38.7319 22.2505C38.652 22.2985 38.5987 22.3705 38.5454 22.4184C38.1723 22.7302 37.293 22.5623 35.5609 21.8428C33.7489 21.0753 32.683 20.4037 30.8444 21.555C32.2567 20.0919 32.31 18.5569 31.2174 17.5016C30.0982 16.4463 28.5527 16.6382 26.2877 18.5329L24.0493 20.4517L24.1826 20.5716C24.5823 20.3318 24.9287 20.4277 25.9679 21.4351L31.0575 26.3039C32.1234 27.3113 32.1767 27.5991 31.9102 27.9828L32.0435 28.1028L33.6956 26.6877L33.5624 26.5678C33.136 26.7836 32.8163 26.7117 31.7504 25.7043L29.059 23.114L29.8851 22.3944C31.777 20.8115 32.9495 21.6989 35.1346 22.5384C36.6268 23.114 37.4529 23.6416 38.3322 22.8981ZM28.8991 22.9461L25.3817 19.6122C25.5949 19.4204 25.7547 19.2285 25.9679 19.0846C28.073 17.2857 29.5653 17.2857 30.6845 18.365C31.777 19.3964 31.5905 20.6676 30.1782 21.8668L28.8991 22.9461Z" fill="white"/>
<path d="M33.7524 14.9807L42.4394 20.4252L42.6792 20.2573L40.3609 10.9993C40.0411 9.63219 40.2277 9.27242 40.5208 8.96062L40.4142 8.8407L38.8953 9.75211L39.0019 9.87203C39.5615 9.68016 39.9079 10.1119 40.1744 11.1192L42.1996 19.3219L34.5518 14.501C33.2727 13.6856 33.1395 13.5177 33.4593 13.2059L33.3527 13.086L31.6206 14.1413L31.7272 14.2612C32.047 14.1653 32.4733 14.1653 33.7524 14.9807Z" fill="white"/>
<path d="M45.9374 18.0256L47.6162 17.354L47.5363 17.2101C46.9767 17.3301 46.7102 16.8264 46.6569 15.7951L46.577 13.3726L51.107 11.5738L53.0789 13.2527C54.1981 14.2121 54.3313 14.4039 53.905 14.6678L53.9849 14.8117L55.9302 14.0442L55.8502 13.9003C55.5038 13.9482 55.0774 13.8763 53.9583 12.9169L46.2839 6.27319L45.6177 6.89679L45.8309 7.0407C46.0174 7.18461 46.124 7.3525 46.124 7.56836L46.4171 15.891C46.4704 17.3061 46.2039 17.6419 45.8575 17.8817L45.9374 18.0256ZM46.577 13.1568L46.3638 7.47242L50.9205 11.4299L46.577 13.1568Z" fill="white"/>
<path d="M56.1009 14.1275L63.4289 12.4006L63.0825 10.9375L62.9492 10.9615C62.7094 12.0168 62.2831 12.4725 60.8441 12.8083L58.2593 13.4319C57.833 13.5278 57.5665 13.3839 57.4599 13.0002L55.2482 5.44506C54.8751 4.12591 54.9817 3.81411 55.4081 3.62224L55.3548 3.45435L53.1431 3.95802L53.1964 4.12591C53.676 4.12591 53.9425 4.34177 54.3155 5.66092L56.2075 12.1367C56.5806 13.4799 56.474 13.7677 56.0476 13.9596L56.1009 14.1275Z" fill="white"/>
<path d="M64.0401 12.2248L66.3318 12.0569L66.3052 11.889C65.8255 11.817 65.6123 11.5772 65.4791 10.1861L65.1593 6.66035L72.061 6.13269L72.3807 9.65841C72.514 11.0495 72.3274 11.3133 71.8744 11.4573L71.9011 11.6251L74.1394 11.4573L74.1128 11.2894C73.6864 11.2174 73.4466 10.9776 73.3134 9.58646L72.6738 2.91876C72.5673 1.57563 72.7538 1.28781 73.1535 1.16789V1L70.9151 1.16789V1.33578C71.3948 1.38375 71.6346 1.64758 71.7412 2.99072L72.0343 5.91683L65.1327 6.44449L64.8396 3.51838C64.733 2.17524 64.8929 1.88743 65.3459 1.7675V1.59961L63.0542 1.7675V1.9354C63.5605 2.00735 63.7737 2.2472 63.8803 3.59033L64.5198 10.258C64.653 11.6491 64.4931 11.9369 64.0135 12.0569L64.0401 12.2248Z" fill="white"/>
<path d="M80.8227 12.1848C83.594 12.4966 86.8716 11.2494 87.3779 7.53179C87.8842 3.86216 85.0863 1.79949 82.2883 1.48769C78.7975 1.10394 76.1595 3.04668 75.7331 6.21264C75.2268 9.8343 78.0248 11.873 80.8227 12.1848ZM76.7457 5.4931C77.0655 3.0227 78.9841 1.41573 81.782 1.72753C84.8731 2.06332 86.8183 5.13334 86.4186 8.15539C86.0722 10.7217 84.1003 12.2567 81.329 11.9449C78.2113 11.5852 76.3193 8.49117 76.7457 5.4931Z" fill="white"/>
<path d="M119.339 132.79C122.243 132.79 124.881 132.31 125.814 131.95V130.775C125.015 130.871 124.348 130.991 123.576 130.991C119.339 130.991 115.528 125.786 109.985 113.195C104.176 99.9071 102.071 90.769 84.4041 88.5145C101.272 86.9555 110.891 78.2971 110.891 66.9044C110.891 55.3918 100.872 48.868 76.3567 48.868H52.0811V50.1632C55.785 51.0027 57.3572 53.0174 57.3572 63.9303V116.864C57.3572 127.801 55.785 129.816 52.0811 130.655V131.95H70.0146V130.655C66.3373 129.816 64.7385 127.801 64.7385 116.864V88.7543H73.8518C94.2903 88.7543 95.8624 99.7872 103.244 115.089C108.387 125.786 109.852 132.79 119.339 132.79ZM64.7385 87.0754V50.6429C67.1101 50.523 69.2419 50.4031 71.347 50.4031C94.2903 50.4031 102.737 57.8862 102.737 69.5187C102.737 80.6715 94.0238 87.0754 78.7283 87.0754H64.7385Z" fill="white"/>
</svg>
