<svg width="296" height="149" viewBox="0 0 296 149" fill="none" xmlns="http://www.w3.org/2000/svg">
<path d="M156.856 128C155.256 128 153.656 127.2 152.056 125.6C150.52 123.936 149.112 121.888 147.832 119.456C146.616 117.024 145.176 114.4 143.512 111.584C141.848 108.704 140.184 106.016 138.52 103.52C136.856 101.024 134.744 98.912 132.184 97.184C129.624 95.456 126.904 94.528 124.024 94.4V106.304C124.024 113.216 124.216 117.92 124.6 120.416C125.048 122.848 125.656 124.384 126.424 125.024C127.96 126.24 130.328 126.848 133.528 126.848L133.72 128H107.992L108.184 126.848C111.32 126.848 113.624 126.272 115.096 125.12C116.312 124.16 117.016 121.024 117.208 115.712C117.336 113.6 117.4 110.464 117.4 106.304V82.016C117.4 74.912 117.208 70.208 116.824 67.904C116.44 65.6 115.864 64.16 115.096 63.584C113.624 62.496 111.32 61.952 108.184 61.952L107.992 60.8H130.264C146.392 60.8 154.456 66.24 154.456 77.12C154.456 81.792 152.792 85.728 149.464 88.928C146.2 92.064 142.232 93.888 137.56 94.4C142.232 97.152 146.552 102.208 150.52 109.568C152.056 112.448 153.688 115.2 155.416 117.824C159.192 123.84 164.056 126.848 170.008 126.848L170.2 128H156.856ZM124.024 63.008V92.48H130.072C134.936 92.48 138.968 91.232 142.168 88.736C145.368 86.24 146.968 82.528 146.968 77.6C146.968 67.872 141.4 63.008 130.264 63.008H124.024Z" fill="#D3D3D3"/>
<path d="M158.734 103.144C148.92 110.568 137.144 114.28 123.406 114.28C109.752 114.28 98.7442 109.885 90.3815 101.096C82.0188 92.3067 77.8375 81.3413 77.8375 68.2C77.8375 55.0587 81.8482 44.136 89.8695 35.432C97.9762 26.6427 108.856 22.248 122.51 22.248C128.824 22.248 135.139 23.1013 141.454 24.808C147.768 26.5147 152.547 28.264 155.79 30.056V46.44L154.382 46.184C152.248 38.504 148.536 33.0853 143.246 29.928C138.04 26.7707 131.128 25.192 122.51 25.192C111.587 25.192 103.267 29.16 97.5495 37.096C91.8322 44.9467 88.9735 55.2293 88.9735 67.944C88.9735 80.6587 92.0028 90.9413 98.0615 98.792C104.12 106.643 112.611 110.568 123.534 110.568C131.384 110.568 137.912 109.629 143.118 107.752C148.408 105.789 153.614 102.973 158.734 99.304V103.144Z" fill="#D3D3D3"/>
<path d="M20.196 85C19.596 85 18.996 84.7 18.396 84.1C17.82 83.476 17.292 82.708 16.812 81.796C16.356 80.884 15.816 79.9 15.192 78.844C14.568 77.764 13.944 76.756 13.32 75.82C12.696 74.884 11.904 74.092 10.944 73.444C9.984 72.796 8.964 72.448 7.884 72.4V76.864C7.884 79.456 7.956 81.22 8.1 82.156C8.268 83.068 8.496 83.644 8.784 83.884C9.36 84.34 10.248 84.568 11.448 84.568L11.52 85H1.872L1.944 84.568C3.12 84.568 3.984 84.352 4.536 83.92C4.992 83.56 5.256 82.384 5.328 80.392C5.376 79.6 5.4 78.424 5.4 76.864V67.756C5.4 65.092 5.328 63.328 5.184 62.464C5.04 61.6 4.824 61.06 4.536 60.844C3.984 60.436 3.12 60.232 1.944 60.232L1.872 59.8H10.224C16.272 59.8 19.296 61.84 19.296 65.92C19.296 67.672 18.672 69.148 17.424 70.348C16.2 71.524 14.712 72.208 12.96 72.4C14.712 73.432 16.332 75.328 17.82 78.088C18.396 79.168 19.008 80.2 19.656 81.184C21.072 83.44 22.896 84.568 25.128 84.568L25.2 85H20.196ZM7.884 60.628V71.68H10.152C11.976 71.68 13.488 71.212 14.688 70.276C15.888 69.34 16.488 67.948 16.488 66.1C16.488 62.452 14.4 60.628 10.224 60.628H7.884ZM39.3981 75.892H27.5901V76.504C27.5901 79.048 28.1301 80.992 29.2101 82.336C30.2901 83.656 31.6341 84.316 33.2421 84.316C35.6421 84.316 37.3701 83.356 38.4261 81.436L38.9661 81.724C37.7181 84.148 35.6301 85.36 32.7021 85.36C30.5421 85.36 28.6941 84.58 27.1581 83.02C25.6221 81.46 24.8541 79.36 24.8541 76.72C24.8541 74.056 25.5261 71.872 26.8701 70.168C28.2381 68.464 30.0501 67.612 32.3061 67.612C34.5861 67.612 36.3381 68.392 37.5621 69.952C38.7861 71.488 39.3981 73.468 39.3981 75.892ZM32.4141 68.332C31.0221 68.332 29.9181 68.932 29.1021 70.132C28.3101 71.308 27.8301 72.88 27.6621 74.848H36.6261C36.4581 70.504 35.0541 68.332 32.4141 68.332ZM55.3871 67.216L55.1711 65.38C55.1711 64.924 55.3031 64.564 55.5671 64.3C55.8551 64.036 56.1791 63.904 56.5391 63.904C56.8991 63.904 57.2111 64.036 57.4751 64.3C57.7631 64.564 57.9071 64.924 57.9071 65.38C57.9071 66.724 56.9111 68.176 54.9191 69.736C55.9751 70.912 56.5031 72.328 56.5031 73.984C56.5031 75.616 55.8551 77.056 54.5591 78.304C53.2631 79.552 51.6791 80.176 49.8071 80.176C48.4871 80.176 47.3111 79.864 46.2791 79.24C45.2711 80.152 44.7671 81.124 44.7671 82.156C44.7671 82.852 45.0191 83.416 45.5231 83.848C46.0511 84.256 46.8431 84.46 47.8991 84.46C48.9791 84.46 49.8791 84.472 50.5991 84.496C51.3191 84.52 52.1711 84.568 53.1551 84.64C54.1391 84.712 54.8951 84.844 55.4231 85.036C55.9751 85.228 56.5271 85.48 57.0791 85.792C58.0871 86.368 58.5911 87.364 58.5911 88.78C58.5911 90.508 57.6911 92.008 55.8911 93.28C54.1151 94.576 51.8111 95.224 48.9791 95.224C46.8191 95.224 45.0671 94.816 43.7231 94C42.3791 93.208 41.7071 92.152 41.7071 90.832C41.7071 89.896 42.0191 88.996 42.6431 88.132C43.2671 87.292 44.0711 86.716 45.0551 86.404C43.6631 85.852 42.9671 84.772 42.9671 83.164C42.9671 82.396 43.2191 81.616 43.7231 80.824C44.2271 80.008 44.8751 79.348 45.6671 78.844C43.9631 77.548 43.1111 75.94 43.1111 74.02C43.1111 72.076 43.7591 70.528 45.0551 69.376C46.3511 68.2 47.9231 67.612 49.7711 67.612C51.6431 67.612 53.2151 68.176 54.4871 69.304C55.0871 68.704 55.3871 68.008 55.3871 67.216ZM44.2271 90.472C44.2271 91.672 44.6951 92.632 45.6311 93.352C46.5911 94.072 47.8991 94.432 49.5551 94.432C51.2351 94.432 52.7351 93.964 54.0551 93.028C55.3991 92.092 56.0711 90.976 56.0711 89.68C56.0711 88.408 55.3991 87.58 54.0551 87.196C52.7351 86.812 50.0831 86.62 46.0991 86.62C45.6431 86.884 45.2111 87.376 44.8031 88.096C44.4191 88.84 44.2271 89.632 44.2271 90.472ZM46.7831 77.728C47.4791 78.736 48.4871 79.24 49.8071 79.24C51.1271 79.24 52.1351 78.736 52.8311 77.728C53.5271 76.696 53.8751 75.388 53.8751 73.804C53.8751 72.196 53.5271 70.912 52.8311 69.952C52.1351 68.992 51.1271 68.512 49.8071 68.512C48.4871 68.512 47.4791 68.992 46.7831 69.952C46.0871 70.912 45.7391 72.196 45.7391 73.804C45.7391 75.388 46.0871 76.696 46.7831 77.728ZM63.5608 63.292C63.1528 62.884 62.9488 62.404 62.9488 61.852C62.9488 61.3 63.1528 60.82 63.5608 60.412C63.9688 60.004 64.4488 59.8 65.0008 59.8C65.5528 59.8 66.0328 60.004 66.4408 60.412C66.8488 60.82 67.0528 61.3 67.0528 61.852C67.0528 62.404 66.8488 62.884 66.4408 63.292C66.0328 63.7 65.5528 63.904 65.0008 63.904C64.4488 63.904 63.9688 63.7 63.5608 63.292ZM66.3688 67.612V79.06C66.3688 81.58 66.5128 83.128 66.8008 83.704C67.1128 84.28 67.9768 84.568 69.3928 84.568L69.4648 85H60.6808L60.7528 84.568C62.1928 84.568 63.0688 84.28 63.3808 83.704C63.6928 83.104 63.8488 81.532 63.8488 78.988V76.468C63.8488 73.684 63.7648 71.848 63.5968 70.96C63.4528 70.048 63.2368 69.46 62.9488 69.196C62.3728 68.668 61.4848 68.404 60.2848 68.404L60.2128 68.008C62.3008 67.744 64.3528 67.612 66.3688 67.612ZM85.3906 73.372V77.008C85.3906 79.672 85.4746 81.424 85.6426 82.264C85.8106 83.08 86.2186 83.488 86.8666 83.488C87.2746 83.488 87.8146 83.32 88.4866 82.984L88.6666 83.344C88.4746 83.488 88.2226 83.668 87.9106 83.884C87.5986 84.076 86.9626 84.34 86.0026 84.676C85.0426 85.012 84.1186 85.18 83.2306 85.18C82.9906 84.172 82.8706 82.564 82.8706 80.356C82.3426 81.844 81.6466 83.056 80.7826 83.992C79.9426 84.904 78.7666 85.36 77.2546 85.36C75.7426 85.36 74.5426 84.964 73.6546 84.172C72.7906 83.356 72.3586 82.252 72.3586 80.86C72.3586 76.996 75.8626 75.052 82.8706 75.028V73.732C82.8706 72.004 82.6186 70.684 82.1146 69.772C81.6106 68.86 80.6746 68.404 79.3066 68.404C78.5386 68.404 77.9146 68.596 77.4346 68.98C76.9546 69.364 76.6306 69.784 76.4626 70.24C76.0546 71.488 75.4426 72.112 74.6266 72.112C73.8346 72.112 73.4386 71.668 73.4386 70.78C73.4386 69.868 74.0386 69.112 75.2386 68.512C76.4386 67.912 77.8906 67.612 79.5946 67.612C81.2986 67.612 82.6906 68.104 83.7706 69.088C84.8506 70.048 85.3906 71.476 85.3906 73.372ZM75.0946 81.004C75.0946 81.94 75.3226 82.72 75.7786 83.344C76.2346 83.944 76.9546 84.244 77.9386 84.244C78.9466 84.244 79.8586 83.764 80.6746 82.804C81.4906 81.82 82.0426 80.74 82.3306 79.564C82.6426 78.364 82.8226 77.128 82.8706 75.856C80.2066 75.88 78.2386 76.372 76.9666 77.332C75.7186 78.292 75.0946 79.516 75.0946 81.004ZM96.8141 67.612V74.056C97.0301 72.328 97.6301 70.828 98.6141 69.556C99.5981 68.26 100.906 67.612 102.538 67.612C106.21 67.612 108.046 69.532 108.046 73.372V79.06C108.046 81.556 108.202 83.104 108.514 83.704C108.85 84.28 109.714 84.568 111.106 84.568L111.178 85H102.43L102.502 84.568C103.942 84.568 104.806 84.268 105.094 83.668C105.382 83.068 105.526 81.424 105.526 78.736V73.732C105.526 72.076 105.262 70.828 104.734 69.988C104.23 69.148 103.414 68.728 102.286 68.728C101.182 68.728 100.258 69.112 99.5141 69.88C98.7701 70.624 98.2181 71.572 97.8581 72.724C97.1621 74.956 96.8141 77.2 96.8141 79.456C96.8141 81.712 96.9581 83.128 97.2461 83.704C97.5581 84.28 98.4221 84.568 99.8381 84.568L99.9101 85H91.1261L91.1981 84.568C92.6381 84.568 93.5141 84.28 93.8261 83.704C94.1381 83.104 94.2941 81.532 94.2941 78.988V76.108C94.2941 72.508 94.1141 70.336 93.7541 69.592C93.6341 69.328 93.4181 69.088 93.1061 68.872C92.8181 68.656 92.4941 68.524 92.1341 68.476C91.7981 68.428 91.3301 68.404 90.7301 68.404L90.6581 68.008C92.7461 67.744 94.7981 67.612 96.8141 67.612ZM128.238 75.892H116.43V76.504C116.43 79.048 116.97 80.992 118.05 82.336C119.13 83.656 120.474 84.316 122.082 84.316C124.482 84.316 126.21 83.356 127.266 81.436L127.806 81.724C126.558 84.148 124.47 85.36 121.542 85.36C119.382 85.36 117.534 84.58 115.998 83.02C114.462 81.46 113.694 79.36 113.694 76.72C113.694 74.056 114.366 71.872 115.71 70.168C117.078 68.464 118.89 67.612 121.146 67.612C123.426 67.612 125.178 68.392 126.402 69.952C127.626 71.488 128.238 73.468 128.238 75.892ZM121.254 68.332C119.862 68.332 118.758 68.932 117.942 70.132C117.15 71.308 116.67 72.88 116.502 74.848H125.466C125.298 70.504 123.894 68.332 121.254 68.332ZM163.595 82.228C160.835 84.316 157.523 85.36 153.659 85.36C149.819 85.36 146.723 84.124 144.371 81.652C142.019 79.18 140.843 76.096 140.843 72.4C140.843 68.704 141.971 65.632 144.227 63.184C146.507 60.712 149.567 59.476 153.407 59.476C155.183 59.476 156.959 59.716 158.735 60.196C160.511 60.676 161.855 61.168 162.767 61.672V66.28L162.371 66.208C161.771 64.048 160.727 62.524 159.239 61.636C157.775 60.748 155.831 60.304 153.407 60.304C150.335 60.304 147.995 61.42 146.387 63.652C144.779 65.86 143.975 68.752 143.975 72.328C143.975 75.904 144.827 78.796 146.531 81.004C148.235 83.212 150.623 84.316 153.695 84.316C155.903 84.316 157.739 84.052 159.203 83.524C160.691 82.972 162.155 82.18 163.595 81.148V82.228ZM179.504 73.372V77.008C179.504 79.672 179.588 81.424 179.756 82.264C179.924 83.08 180.332 83.488 180.98 83.488C181.388 83.488 181.928 83.32 182.6 82.984L182.78 83.344C182.588 83.488 182.336 83.668 182.024 83.884C181.712 84.076 181.076 84.34 180.116 84.676C179.156 85.012 178.232 85.18 177.344 85.18C177.104 84.172 176.984 82.564 176.984 80.356C176.456 81.844 175.76 83.056 174.896 83.992C174.056 84.904 172.88 85.36 171.368 85.36C169.856 85.36 168.656 84.964 167.768 84.172C166.904 83.356 166.472 82.252 166.472 80.86C166.472 76.996 169.976 75.052 176.984 75.028V73.732C176.984 72.004 176.732 70.684 176.228 69.772C175.724 68.86 174.788 68.404 173.42 68.404C172.652 68.404 172.028 68.596 171.548 68.98C171.068 69.364 170.744 69.784 170.576 70.24C170.168 71.488 169.556 72.112 168.74 72.112C167.948 72.112 167.552 71.668 167.552 70.78C167.552 69.868 168.152 69.112 169.352 68.512C170.552 67.912 172.004 67.612 173.708 67.612C175.412 67.612 176.804 68.104 177.884 69.088C178.964 70.048 179.504 71.476 179.504 73.372ZM169.208 81.004C169.208 81.94 169.436 82.72 169.892 83.344C170.348 83.944 171.068 84.244 172.052 84.244C173.06 84.244 173.972 83.764 174.788 82.804C175.604 81.82 176.156 80.74 176.444 79.564C176.756 78.364 176.936 77.128 176.984 75.856C174.32 75.88 172.352 76.372 171.08 77.332C169.832 78.292 169.208 79.516 169.208 81.004ZM196.219 67.432C196.819 67.432 197.347 67.564 197.803 67.828C198.259 68.092 198.487 68.452 198.487 68.908C198.487 69.364 198.343 69.724 198.055 69.988C197.767 70.252 197.443 70.384 197.083 70.384C196.723 70.384 196.267 70.228 195.715 69.916C195.187 69.604 194.623 69.448 194.023 69.448C193.087 69.448 192.319 70.312 191.719 72.04C191.143 73.768 190.855 75.772 190.855 78.052C190.855 81.124 191.011 82.984 191.323 83.632C191.419 83.848 191.599 84.052 191.863 84.244C192.127 84.412 192.403 84.508 192.691 84.532C192.979 84.556 193.387 84.568 193.915 84.568L193.987 85H185.239L185.311 84.568C186.079 84.568 186.631 84.532 186.967 84.46C187.327 84.364 187.627 84.064 187.867 83.56C188.107 83.056 188.239 82.432 188.263 81.688C188.311 80.92 188.335 79.708 188.335 78.052V75.964C188.335 72.628 188.239 70.732 188.047 70.276C187.879 69.82 187.723 69.46 187.579 69.196C187.435 68.932 187.219 68.752 186.931 68.656C186.403 68.512 185.707 68.44 184.843 68.44L184.771 68.044C186.811 67.756 188.839 67.612 190.855 67.612V72.904C191.119 71.2 191.707 69.868 192.619 68.908C193.555 67.924 194.755 67.432 196.219 67.432ZM204.216 70.024C204.216 71.128 204.78 73.096 205.908 75.928L208.68 82.912L211.488 74.272C212.04 72.544 212.316 71.236 212.316 70.348C212.316 69.052 211.476 68.404 209.796 68.404L209.724 67.972H216.492L216.42 68.404C215.436 68.404 214.74 68.728 214.332 69.376C213.948 70 213.216 71.956 212.136 75.244L208.896 85.108H206.772L202.092 73.156C201.3 71.14 200.58 69.844 199.932 69.268C199.308 68.692 198.552 68.404 197.664 68.404L197.592 67.972H206.52L206.448 68.404C205.608 68.404 205.02 68.536 204.684 68.8C204.372 69.064 204.216 69.472 204.216 70.024ZM231.324 73.372V77.008C231.324 79.672 231.408 81.424 231.576 82.264C231.744 83.08 232.152 83.488 232.8 83.488C233.208 83.488 233.748 83.32 234.42 82.984L234.6 83.344C234.408 83.488 234.156 83.668 233.844 83.884C233.532 84.076 232.896 84.34 231.936 84.676C230.976 85.012 230.052 85.18 229.164 85.18C228.924 84.172 228.804 82.564 228.804 80.356C228.276 81.844 227.58 83.056 226.716 83.992C225.876 84.904 224.7 85.36 223.188 85.36C221.676 85.36 220.476 84.964 219.588 84.172C218.724 83.356 218.292 82.252 218.292 80.86C218.292 76.996 221.796 75.052 228.804 75.028V73.732C228.804 72.004 228.552 70.684 228.048 69.772C227.544 68.86 226.608 68.404 225.24 68.404C224.472 68.404 223.848 68.596 223.368 68.98C222.888 69.364 222.564 69.784 222.396 70.24C221.988 71.488 221.376 72.112 220.56 72.112C219.768 72.112 219.372 71.668 219.372 70.78C219.372 69.868 219.972 69.112 221.172 68.512C222.372 67.912 223.824 67.612 225.528 67.612C227.232 67.612 228.624 68.104 229.704 69.088C230.784 70.048 231.324 71.476 231.324 73.372ZM221.028 81.004C221.028 81.94 221.256 82.72 221.712 83.344C222.168 83.944 222.888 84.244 223.872 84.244C224.88 84.244 225.792 83.764 226.608 82.804C227.424 81.82 227.976 80.74 228.264 79.564C228.576 78.364 228.756 77.128 228.804 75.856C226.14 75.88 224.172 76.372 222.9 77.332C221.652 78.292 221.028 79.516 221.028 81.004ZM242.1 58.504V78.736C242.1 81.4 242.256 83.044 242.568 83.668C242.88 84.268 243.744 84.568 245.16 84.568L245.232 85H236.412L236.484 84.568C237.924 84.568 238.8 84.268 239.112 83.668C239.424 83.068 239.58 81.424 239.58 78.736V64.984C239.58 62.32 239.436 60.712 239.148 60.16C239.052 59.992 238.872 59.824 238.608 59.656C238.344 59.488 238.056 59.392 237.744 59.368C237.456 59.344 237.036 59.332 236.484 59.332L236.412 58.936C238.212 58.648 240.108 58.504 242.1 58.504ZM253.361 58.504V74.056C253.577 72.328 254.177 70.828 255.161 69.556C256.145 68.26 257.453 67.612 259.085 67.612C262.757 67.612 264.593 69.532 264.593 73.372V79.06C264.593 81.556 264.749 83.104 265.061 83.704C265.397 84.28 266.261 84.568 267.653 84.568L267.725 85H258.977L259.049 84.568C260.489 84.568 261.353 84.268 261.641 83.668C261.929 83.068 262.073 81.424 262.073 78.736V73.732C262.073 72.076 261.809 70.828 261.281 69.988C260.777 69.148 259.961 68.728 258.833 68.728C257.729 68.728 256.805 69.112 256.061 69.88C255.317 70.624 254.765 71.572 254.405 72.724C253.709 74.956 253.361 77.2 253.361 79.456C253.361 81.712 253.505 83.128 253.793 83.704C254.105 84.28 254.969 84.568 256.385 84.568L256.457 85H247.673L247.745 84.568C249.185 84.568 250.061 84.28 250.373 83.704C250.685 83.104 250.841 81.532 250.841 78.988V67C250.841 63.4 250.673 61.24 250.337 60.52C250.193 60.232 249.965 59.98 249.653 59.764C249.365 59.548 249.041 59.416 248.681 59.368C248.345 59.32 247.877 59.296 247.277 59.296L247.205 58.9C249.293 58.636 251.345 58.504 253.361 58.504ZM270.245 76.504C270.245 73.984 270.965 71.872 272.405 70.168C273.845 68.464 275.801 67.612 278.273 67.612C280.745 67.612 282.737 68.464 284.249 70.168C285.761 71.872 286.517 73.984 286.517 76.504C286.517 79.024 285.785 81.136 284.321 82.84C282.881 84.52 280.925 85.36 278.453 85.36C275.981 85.36 273.989 84.508 272.477 82.804C270.989 81.1 270.245 79 270.245 76.504ZM274.385 82.336C275.345 83.872 276.701 84.64 278.453 84.64C280.205 84.64 281.525 83.884 282.413 82.372C283.325 80.86 283.781 78.916 283.781 76.54C283.781 74.14 283.301 72.172 282.341 70.636C281.381 69.1 280.025 68.332 278.273 68.332C276.545 68.332 275.225 69.1 274.313 70.636C273.425 72.148 272.981 74.092 272.981 76.468C272.981 78.844 273.449 80.8 274.385 82.336Z" fill="white"/>
</svg>
